<?xml version="1.0" ?><svg id="Icons" style="enable-background:new 0 0 32 32;" version="1.1" viewBox="0 0 32 32" xml:space="preserve" xmlns="http://www.w3.org/2000/svg" xmlns:xlink="http://www.w3.org/1999/xlink"><path d="M29.8,19.4l-3-4c-0.3-0.3-0.7-0.5-1.1-0.3C25.3,15.2,25,15.6,25,16c0,5-4,9-9,9c-0.6,0-1,0.4-1,1s0.4,1,1,1  c5.2,0,9.5-3.6,10.7-8.4l1.5,2c0.3,0.4,1,0.5,1.4,0.2C30,20.5,30.1,19.8,29.8,19.4z"/><path d="M5.2,16.6C5.4,16.9,5.7,17,6,17c0.1,0,0.2,0,0.3-0.1C6.7,16.8,7,16.4,7,16c0-5,4-9,9-9c0.6,0,1-0.4,1-1s-0.4-1-1-1  c-5.2,0-9.5,3.6-10.7,8.4l-1.5-2c-0.3-0.4-1-0.5-1.4-0.2c-0.4,0.3-0.5,1-0.2,1.4L5.2,16.6z"/><path d="M14,25.7V21c0-0.6-0.4-1-1-1H5c-0.6,0-1,0.4-1,1v4.7l-1.8,2.7c-0.2,0.3-0.2,0.7,0,1S2.6,30,3,30h12c0.4,0,0.7-0.2,0.9-0.5  s0.2-0.7,0-1L14,25.7z M6,22h6v3H6V22z"/><path d="M27,2h-7c-0.6,0-1,0.4-1,1v10c0,0.6,0.4,1,1,1h7c0.6,0,1-0.4,1-1V3C28,2.4,27.6,2,27,2z M25,11h-2c-0.6,0-1-0.4-1-1  s0.4-1,1-1h2c0.6,0,1,0.4,1,1S25.6,11,25,11z M26,6h-5V4h5V6z"/></svg>