<svg width="24" height="24" viewBox="0 0 24 24" fill="none" xmlns="http://www.w3.org/2000/svg">
<g clip-path="url(#clip0_303_17)">
<path d="M2 3C2 2.44772 2.44771 2 3 2H21C21.5523 2 22 2.44772 22 3V7V9.5V10.2192C22 10.6781 22.3123 11.0781 22.7575 11.1894L23.5558 11.3889C23.8121 11.453 23.9844 11.6931 23.963 11.9564V11.9564C23.9607 11.9854 23.9607 12.0146 23.963 12.0436V12.0436C23.9844 12.3069 23.8121 12.547 23.5558 12.6111L22.7575 12.8106C22.3123 12.9219 22 13.3219 22 13.7808V14.5V17V21C22 21.5523 21.5523 22 21 22H3C2.44771 22 2 21.5523 2 21L2 17V14.5L2 13.7808C2 13.3219 1.6877 12.9219 1.24254 12.8106L0.48507 12.6213C0.19999 12.55 -9.53674e-07 12.2939 -9.53674e-07 12V12V12C-3.93193e-07 11.7061 0.199991 11.45 0.485071 11.3787L1.24253 11.1894C1.6877 11.0781 2 10.6781 2 10.2192L2 9.5L2 7V3Z" fill="#CC00FF"/>
<path d="M7.07234 20C6.92568 20 6.80101 19.956 6.69834 19.868C6.61034 19.7653 6.56634 19.6407 6.56634 19.494V5.128C6.56634 4.96667 6.61034 4.842 6.69834 4.754C6.80101 4.65133 6.92568 4.6 7.07234 4.6H13.1003C14.6697 4.6 15.8503 4.974 16.6423 5.722C17.4343 6.47 17.8303 7.45267 17.8303 8.67C17.8303 9.49133 17.6397 10.1733 17.2583 10.716C16.8917 11.2587 16.4517 11.6547 15.9383 11.904C16.5543 12.212 17.075 12.6887 17.5003 13.334C17.9257 13.9793 18.1383 14.72 18.1383 15.556C18.1383 16.3773 17.9477 17.1253 17.5663 17.8C17.1997 18.4747 16.6497 19.01 15.9163 19.406C15.183 19.802 14.303 20 13.2763 20H7.07234ZM12.7703 11.112C13.6943 11.112 14.3983 10.8993 14.8823 10.474C15.381 10.0487 15.6303 9.45467 15.6303 8.692C15.6303 7.944 15.3883 7.372 14.9043 6.976C14.4203 6.58 13.709 6.382 12.7703 6.382H8.72234V11.112H12.7703ZM12.9903 18.218C13.9143 18.218 14.633 17.9687 15.1463 17.47C15.6743 16.9713 15.9383 16.3333 15.9383 15.556C15.9383 14.7493 15.6743 14.104 15.1463 13.62C14.633 13.1213 13.9143 12.872 12.9903 12.872H8.72234V18.218H12.9903Z" fill="white"/>
</g>
<defs>
<clipPath id="clip0_303_17">
<rect width="24" height="24" fill="white"/>
</clipPath>
</defs>
</svg>
