<svg width="30" height="30" viewBox="0 0 30 30" fill="none" xmlns="http://www.w3.org/2000/svg">
<path d="M26 26C27.1046 26 28 25.1046 28 24C28 22.8954 27.1046 22 26 22C24.8954 22 24 22.8954 24 24C24 25.1046 24.8954 26 26 26Z" fill="#F90303"/>
<path d="M17 5C17 6.105 16.105 6 15 6C13.895 6 13 6.105 13 5C13 3.895 13.895 3 15 3C16.105 3 17 3.895 17 5Z" fill="#F90303"/>
<path d="M4 26C5.10457 26 6 25.1046 6 24C6 22.8954 5.10457 22 4 22C2.89543 22 2 22.8954 2 24C2 25.1046 2.89543 26 4 26Z" fill="#F90303"/>
<path d="M16.836 4.21L15 4L13.164 4.21L2.29999 22.948L4.14399 26H15H25.856L27.7 22.948L16.836 4.21ZM16.212 11.36L16.012 17.833H13.988L13.788 11.36H16.212ZM15.003 22.189C14.175 22.189 13.68 21.748 13.68 21.007C13.68 20.252 14.174 19.811 15.003 19.811C15.825 19.811 16.319 20.252 16.319 21.007C16.319 21.748 15.825 22.189 15.003 22.189Z" fill="#F90303"/>
</svg>
