<svg width="261" height="256" viewBox="0 0 261 256" fill="none" xmlns="http://www.w3.org/2000/svg">
<g filter="url(#filter0_d_1134_940)">
<rect x="40.1719" y="36.4058" width="180" height="180" rx="32" fill="white"/>
<rect x="40.6719" y="36.9058" width="179" height="179" rx="31.5" stroke="#D9D9D9"/>
</g>
<path d="M180 76H80V176H180V76Z" fill="#F7DF1E"/>
<path d="M147.175 154.125C149.189 157.414 151.809 159.832 156.444 159.832C160.338 159.832 162.825 157.886 162.825 155.197C162.825 151.975 160.27 150.833 155.984 148.959L153.635 147.951C146.854 145.062 142.349 141.443 142.349 133.792C142.349 126.744 147.719 121.379 156.111 121.379C162.086 121.379 166.381 123.459 169.476 128.903L162.159 133.602C160.548 130.713 158.809 129.575 156.111 129.575C153.359 129.575 151.614 131.321 151.614 133.602C151.614 136.421 153.36 137.562 157.392 139.308L159.741 140.314C167.725 143.738 172.233 147.229 172.233 155.076C172.233 163.537 165.587 168.171 156.662 168.171C147.935 168.171 142.297 164.013 139.538 158.562L147.175 154.125ZM113.979 154.94C115.455 157.559 116.798 159.773 120.027 159.773C123.114 159.773 125.062 158.565 125.062 153.868V121.916H134.459V153.995C134.459 163.725 128.754 168.154 120.427 168.154C112.903 168.154 108.546 164.26 106.33 159.571L113.979 154.94Z" fill="black"/>
<defs>
<filter id="filter0_d_1134_940" x="0.171875" y="0.405762" width="260" height="260" filterUnits="userSpaceOnUse" color-interpolation-filters="sRGB">
<feFlood flood-opacity="0" result="BackgroundImageFix"/>
<feColorMatrix in="SourceAlpha" type="matrix" values="0 0 0 0 0 0 0 0 0 0 0 0 0 0 0 0 0 0 127 0" result="hardAlpha"/>
<feOffset dy="4"/>
<feGaussianBlur stdDeviation="20"/>
<feComposite in2="hardAlpha" operator="out"/>
<feColorMatrix type="matrix" values="0 0 0 0 0.0367917 0 0 0 0 0.0348958 0 0 0 0 0.0484375 0 0 0 0.1 0"/>
<feBlend mode="normal" in2="BackgroundImageFix" result="effect1_dropShadow_1134_940"/>
<feBlend mode="normal" in="SourceGraphic" in2="effect1_dropShadow_1134_940" result="shape"/>
</filter>
</defs>
</svg>
