<svg width="260" height="256" viewBox="0 0 260 256" fill="none" xmlns="http://www.w3.org/2000/svg">
<g filter="url(#filter0_d_1372_10644)">
<rect x="40" y="36" width="180" height="180" rx="32" fill="white"/>
<rect x="40.5" y="36.5" width="179" height="179" rx="31.5" stroke="#D9D9D9"/>
<path d="M173.946 111.297C173.946 136.448 154.004 156.857 129.392 156.857C104.78 156.857 84.8384 136.448 84.8384 111.297C84.8384 86.1458 104.78 65.7374 129.392 65.7374C154.004 65.7374 173.946 86.1458 173.946 111.297Z" fill="#D33833"/>
<path d="M86.6709 122.579C86.6709 122.579 83.4372 75.0794 127.236 73.714L124.182 68.6119L100.432 76.5885L93.6414 84.3854L87.7129 95.7393L84.3354 108.962L85.3415 117.801" fill="#EF3D3A"/>
<path d="M98.8873 80.2174C91.0904 88.2299 86.2398 99.2605 86.2398 111.477C86.2398 123.693 91.0904 134.724 98.8873 142.736C106.72 150.749 117.463 155.671 129.392 155.671C141.321 155.671 152.064 150.749 159.897 142.736C167.694 134.724 172.544 123.693 172.544 111.477C172.544 99.2605 167.694 88.2299 159.897 80.2174C152.064 72.2409 141.321 67.2825 129.392 67.2825C117.499 67.2825 106.72 72.205 98.8873 80.2174ZM96.9111 144.641C88.6112 136.161 83.4731 124.412 83.4731 111.477C83.4731 98.5419 88.6112 86.7927 96.9111 78.2772C105.211 69.7976 116.709 64.5159 129.392 64.5159C142.076 64.5159 153.573 69.7976 161.873 78.2772C170.173 86.7567 175.311 98.506 175.311 111.477C175.311 124.412 170.173 136.161 161.873 144.641C153.573 153.156 142.076 158.402 129.392 158.402C116.709 158.402 105.211 153.156 96.9111 144.641Z" fill="#231F20"/>
<path d="M148.148 111.549L141.357 112.555L132.195 113.597L126.266 113.74L120.481 113.561L116.062 112.195L112.146 107.956L109.092 99.2964L108.409 97.4281L104.349 96.0627L101.977 92.1463L100.289 86.5412L102.157 81.6187L106.576 80.0737L110.133 81.7624L111.822 85.4992L113.87 85.1758L114.553 84.3135L113.87 80.3971L113.691 75.4746L114.697 68.6838L114.661 64.8033L117.751 59.8449L123.176 55.9285L132.662 51.8684L143.189 53.4134L152.352 60.0246L156.591 66.8154L159.322 71.7379L160.005 83.9542L157.957 94.4818L154.22 103.824L150.699 108.818" fill="#F0D6B7"/>
<path d="M142.399 140.904L118.146 141.91V145.97L120.194 160.234L119.188 161.42L102.229 155.635L101.043 153.587L99.3543 134.4L95.366 122.903L94.5037 120.172L108.085 110.83L112.325 109.141L116.062 113.74L119.296 116.615L123.032 117.801L124.721 118.304L126.769 127.142L128.314 129.011L132.231 127.645L129.5 132.927L144.231 139.898L142.399 140.904Z" fill="#335061"/>
<path d="M102.157 81.6905L106.576 80.1455L110.133 81.8343L111.822 85.571L113.87 85.2476L114.373 83.1996L113.367 79.2832L114.373 69.9413L113.511 64.8392L116.565 61.2821L123.176 56.0363L121.308 53.4852L111.966 58.0843L108.049 61.1384L105.858 65.8812L102.48 70.4803L101.474 75.9058L102.157 81.6905Z" fill="#6D6B6D"/>
<path d="M109.127 65.7375C109.127 65.7375 111.678 59.4497 121.847 56.3956C132.015 53.3415 122.35 54.2039 122.35 54.2039L111.319 58.4436L107.079 62.6834L105.211 66.0609L109.127 65.7375Z" fill="#DCD9D8"/>
<path d="M104.025 80.5048C104.025 80.5048 100.468 68.6119 114.05 66.9231L113.547 64.8751L104.205 67.0669L101.474 75.9057L102.157 81.6905L104.025 80.5048Z" fill="#DCD9D8"/>
<path d="M109.451 96.2783L111.678 94.1224C111.678 94.1224 112.684 94.2302 112.864 95.4159C113.044 96.6016 113.547 107.309 120.841 113.058C121.523 113.597 115.415 112.195 115.415 112.195L109.99 103.716" fill="#F7E4CD"/>
<path d="M140.674 93.0445C140.674 93.0445 141.069 87.9065 142.471 88.3017C143.872 88.6969 143.872 90.0982 143.872 90.0982C143.872 90.0982 140.495 92.2541 140.674 93.0445Z" fill="#F7E4CD"/>
<path d="M154.759 74.217C154.759 74.217 151.956 74.7919 151.705 77.2711C151.453 79.7503 154.759 77.7741 155.262 77.5945" fill="#F7E4CD"/>
<path d="M134.243 74.3967C134.243 74.3967 130.506 74.8998 130.506 77.2712C130.506 79.6426 134.746 79.4629 135.931 78.4569" fill="#F7E4CD"/>
<path d="M111.175 85.4273C111.175 85.4273 104.744 81.5109 104.061 85.2477C103.379 88.9844 101.869 91.6792 105.067 95.5956L102.875 94.9129L100.827 89.6671L100.145 84.565L104.061 80.5049L108.481 80.8283L111.032 82.8763L111.175 85.4273Z" fill="#F7E4CD"/>
<path d="M114.229 74.7201C114.229 74.7201 117.104 59.7731 131.692 56.8987C143.692 54.5273 150.016 57.4017 152.387 60.1324C152.387 60.1324 141.68 47.4131 131.512 51.2935C121.344 55.2099 113.87 62.3241 114.05 66.8873C114.337 74.7201 114.229 74.7201 114.229 74.7201Z" fill="#F7E4CD"/>
<path d="M153.573 61.8211C153.573 61.8211 148.651 61.6414 148.471 66.0609C148.471 66.0609 148.471 66.7435 148.795 67.4262C148.795 67.4262 152.711 63.0068 155.082 65.3782" fill="#F7E4CD"/>
<path d="M132.051 67.8934C132.051 67.8934 131.189 61.1385 125.44 65.0549C121.703 67.6059 122.062 71.163 122.709 71.8457C123.392 72.5284 123.212 73.8937 123.715 72.9595C124.218 72.0253 124.074 68.9713 125.943 68.1089C127.775 67.2466 130.865 66.3124 132.051 67.8934Z" fill="#F7E4CD"/>
<path d="M116.098 113.74L100.145 120.855C100.145 120.855 106.756 147.156 103.379 155.312L101.007 154.449L100.828 144.425L96.4082 125.454L94.5398 120.208L111.176 108.998L116.098 113.74Z" fill="#49728B"/>
<path d="M117.715 128.292L119.978 131.059V141.227H117.284C117.284 141.227 116.96 134.113 116.96 133.251C116.96 132.388 117.284 129.334 117.284 129.334" fill="#49728B"/>
<path d="M117.787 142.772L110.134 143.095L112.325 144.64L117.751 145.503" fill="#49728B"/>
<path d="M143.908 141.083L150.196 140.904L151.741 156.497L145.309 157.36L143.908 141.083Z" fill="#335061"/>
<path d="M145.597 141.083L155.082 140.58C155.082 140.58 158.999 130.735 158.999 130.232C158.999 129.729 162.376 115.968 162.376 115.968L154.723 107.992L153.178 106.626L149.118 110.686V126.46L145.597 141.083Z" fill="#335061"/>
<path d="M149.836 139.898L143.908 141.083L144.77 145.826C146.962 146.832 150.699 144.137 150.699 144.137" fill="#49728B"/>
<path d="M150.016 110.183L161.909 119.022L162.232 114.962L153.25 106.662L150.016 110.183Z" fill="#49728B"/>
<path d="M123.679 174.499L120.158 160.234L118.397 149.707L118.11 141.91L134.027 141.047H143.908L143.01 158.869L144.555 172.63L144.375 175.181L131.476 176.187L123.679 174.499Z" fill="white"/>
<path d="M141.716 140.904C141.716 140.904 140.854 158.546 143.405 171.121C143.405 171.121 138.303 174.355 130.865 175.181L145.13 174.678L146.818 173.672L144.77 145.862L144.231 139.898" fill="#DCD9D8"/>
<path d="M151.992 155.168L158.603 153.3L171.143 152.617L173.012 146.832L169.634 136.808L165.718 136.305L160.292 137.993L155.118 140.544L152.352 140.041L150.196 140.904" fill="white"/>
<path d="M151.885 151.755C151.885 151.755 156.304 149.707 156.987 149.886L155.118 140.544L157.31 139.682C157.31 139.682 158.855 148.521 158.855 149.527C158.855 149.527 168.341 150.03 169.203 150.03C169.203 150.03 171.251 146.114 170.748 142.054L172.616 147.479L172.796 150.533L170.065 154.593L167.011 155.276L161.909 155.096L160.22 152.904L154.292 153.767L152.423 154.449" fill="#DCD9D8"/>
<path d="M145.201 139.718L141.465 130.232L137.548 124.627C137.548 124.627 138.411 122.256 139.596 122.256H143.513L147.25 123.621L146.926 129.909L145.201 139.718Z" fill="white"/>
<path d="M145.956 136.484C145.956 136.484 141.213 127.322 141.213 125.957C141.213 125.957 142.076 123.909 143.261 124.412C144.447 124.915 146.998 126.28 146.998 126.28V123.046L141.213 121.861L137.297 122.364L143.908 138.029L145.273 138.209" fill="#DCD9D8"/>
<path d="M125.188 114.1L120.481 113.597L116.062 112.231V113.776L118.218 116.148L125.009 119.202" fill="white"/>
<path d="M117.607 114.603C117.607 114.603 122.853 116.795 124.577 116.292L124.757 118.34L120.014 117.333L117.14 115.285L117.607 114.603Z" fill="#DCD9D8"/>
<path d="M151.992 122.831C149.118 122.759 146.495 122.4 144.231 121.753C144.375 120.819 144.088 119.92 144.339 119.238C144.986 118.771 146.028 118.771 146.998 118.663C146.171 118.268 144.986 118.088 144.052 118.34C144.016 117.693 143.728 117.298 143.549 116.795C145.165 116.22 148.974 112.447 151.13 113.669C152.172 114.279 152.603 117.657 152.675 119.346C152.747 120.711 152.531 122.076 151.992 122.831Z" fill="#D33833"/>
<path d="M151.992 122.831C149.118 122.759 146.495 122.4 144.231 121.753C144.375 120.819 144.088 119.92 144.339 119.238C144.986 118.771 146.028 118.771 146.998 118.663C146.171 118.268 144.986 118.088 144.052 118.34C144.016 117.693 143.728 117.298 143.549 116.795C145.165 116.22 148.974 112.447 151.13 113.669C152.172 114.279 152.603 117.657 152.675 119.346C152.747 120.711 152.531 122.076 151.992 122.831Z" fill="black" stroke="#D33833" stroke-width="3.83693"/>
<path d="M138.231 118.124C138.231 118.339 138.231 118.555 138.195 118.771C137.297 119.346 135.86 119.346 134.854 119.849C136.291 119.92 137.441 120.28 138.447 120.747C138.411 121.286 138.411 121.861 138.375 122.4C136.722 123.513 135.213 125.202 133.273 126.28C132.339 126.783 129.141 128.077 128.171 127.825C127.632 127.681 127.56 126.999 127.344 126.352C126.877 124.987 125.799 122.759 125.691 120.675C125.584 118.052 125.296 113.633 128.135 114.172C130.434 114.603 133.093 115.645 134.854 116.615C135.967 117.262 136.578 117.98 138.231 118.124Z" fill="#D33833"/>
<path d="M138.231 118.124C138.231 118.339 138.231 118.555 138.195 118.771C137.297 119.346 135.86 119.346 134.854 119.849C136.291 119.92 137.441 120.28 138.447 120.747C138.411 121.286 138.411 121.861 138.375 122.4C136.722 123.513 135.213 125.202 133.273 126.28C132.339 126.783 129.141 128.077 128.171 127.825C127.632 127.681 127.56 126.999 127.344 126.352C126.877 124.987 125.799 122.759 125.691 120.675C125.584 118.052 125.296 113.633 128.135 114.172C130.434 114.603 133.093 115.645 134.854 116.615C135.967 117.262 136.578 117.98 138.231 118.124Z" fill="black" stroke="#D33833" stroke-width="3.83693"/>
<path d="M139.848 121.25C139.596 119.813 139.309 119.417 139.417 118.16C143.261 115.609 143.944 122.543 139.848 121.25Z" fill="#D33833"/>
<path d="M139.848 121.25C139.596 119.813 139.309 119.417 139.417 118.16C143.261 115.609 143.944 122.543 139.848 121.25Z" fill="black" stroke="#D33833" stroke-width="3.83693"/>
<path d="M145.381 122.4C145.381 122.4 144.195 120.711 145.058 120.208C145.92 119.705 146.746 120.208 147.25 119.346C147.753 118.483 147.25 117.98 147.429 116.974C147.609 115.968 148.435 115.788 149.298 115.609C150.16 115.429 152.531 115.106 152.855 115.932L151.849 112.878L149.801 112.195L143.369 115.932L143.046 117.801V121.537" fill="#EF3D3A"/>
<path d="M127.56 128.005C127.344 125.346 127.128 122.723 126.913 120.064C126.554 116.112 127.847 116.794 131.296 116.794C131.835 116.794 134.53 117.405 134.71 117.801C135.644 119.705 133.165 119.274 135.788 120.711C137.979 121.897 141.896 119.992 140.998 117.297C140.494 116.687 138.411 117.118 137.656 116.723C136.327 116.04 134.997 115.357 133.668 114.675C131.979 113.812 128.099 112.519 126.302 113.74C121.739 116.83 126.589 124.591 128.206 127.825" fill="#EF3D3A"/>
<path d="M132.051 67.8933C127.416 66.8154 125.116 69.8336 123.715 72.9595C122.457 72.6721 122.96 70.9474 123.284 70.0851C124.11 67.8215 127.452 64.7674 130.182 65.1985C131.332 65.3423 132.913 66.4202 132.051 67.8933Z" fill="#231F20"/>
<path d="M154.579 73.1392H154.795C155.837 75.295 156.735 77.5945 158.064 79.5348C157.166 81.6187 151.381 83.4152 151.453 79.7503C152.711 79.2114 154.867 79.6425 155.981 78.9239C155.334 77.1634 154.436 75.6543 154.579 73.1392Z" fill="#231F20"/>
<path d="M134.386 73.2109C135.392 75.0434 135.716 76.9477 137.117 78.313C137.764 78.9239 138.985 79.6784 138.375 81.4031C138.231 81.7983 137.189 82.6965 136.578 82.8762C134.386 83.5229 129.248 83.0199 130.973 80.2533C132.805 80.3251 135.249 81.439 136.614 80.1096C135.572 78.4568 133.704 75.1512 134.386 73.2109Z" fill="#231F20"/>
<path d="M153.753 91.6791C150.447 93.799 146.746 96.1345 141.285 95.5955C140.135 94.5895 139.668 92.3259 140.818 90.8527C141.393 91.8588 141.034 93.7272 142.686 94.0146C145.776 94.5536 149.369 92.1103 151.597 91.2839C152.962 88.9484 151.489 88.122 150.232 86.613C147.681 83.5589 144.303 79.7503 144.411 75.1871C145.453 74.4326 145.525 76.3369 145.669 76.6603C146.998 79.7503 150.34 83.7385 152.747 86.3974C153.358 87.0441 154.328 87.6909 154.436 88.122C154.759 89.3437 153.609 90.8527 153.753 91.6791Z" fill="#231F20"/>
<path d="M109.99 89.4515C108.948 88.8407 108.696 86.2537 107.475 86.1819C105.714 86.0741 106.037 89.5593 106.037 91.6074C104.852 90.5295 104.636 87.152 105.498 85.4273C104.492 84.9243 104.061 85.9663 103.486 86.3256C104.241 81.1157 111.139 83.9183 109.99 89.4515Z" fill="#231F20"/>
<path d="M155.837 93.871C154.292 96.8173 152.1 100.051 147.573 100.159C147.465 99.2246 147.393 97.7514 147.573 97.1766C151.058 96.8173 153.214 95.0567 155.837 93.871Z" fill="#231F20"/>
<path d="M134.135 95.7753C137.009 97.2843 142.327 97.464 146.279 97.3562C146.495 98.2185 146.495 99.2964 146.495 100.338C141.429 100.554 135.464 99.2964 134.135 95.7753Z" fill="#231F20"/>
<path d="M133.596 98.5778C135.608 103.608 142.471 103.033 148.256 102.889C148.004 103.536 147.465 104.327 146.746 104.578C144.878 105.333 139.776 105.908 137.189 104.542C135.572 103.68 134.494 101.704 133.596 100.554C133.201 100.015 131.045 98.6137 133.596 98.5778Z" fill="#231F20"/>
<path d="M153.501 126.28C151.166 130.304 148.902 134.436 146.136 137.957C147.286 134.544 147.789 128.795 147.968 124.412C150.411 123.262 152.495 124.663 153.501 126.28Z" fill="#81B0C4"/>
<path d="M166.113 140.724C163.49 141.263 161.658 143.814 159.071 143.634C160.508 141.658 162.951 140.796 166.113 140.724Z" fill="#231F20"/>
<path d="M167.263 144.82C165.107 145.036 162.592 145.395 160.436 145.215C161.478 143.634 165.43 144.209 167.263 144.82Z" fill="#231F20"/>
<path d="M168.017 148.377C165.61 148.413 162.628 148.377 160.328 148.198C161.693 146.724 166.472 147.659 168.017 148.377Z" fill="#231F20"/>
<path d="M148.974 158.078C149.333 161.097 150.519 164.151 150.375 167.456C149.046 167.887 148.291 168.283 146.495 168.283C146.387 165.48 145.992 161.168 146.1 158.474C146.962 158.545 148.256 157.863 148.974 158.078Z" fill="#DCD9D8"/>
<path d="M145.094 113.525C143.872 114.315 142.866 115.285 141.68 116.148C139.093 116.291 137.692 115.968 135.824 114.495C135.86 114.387 136.039 114.423 136.039 114.279C138.806 115.501 142.327 113.776 145.094 113.525Z" fill="#F0D6B7"/>
<path d="M130.65 132.316C131.404 129.047 134.386 127.322 137.081 125.526C139.848 129.047 141.537 133.574 143.405 137.957C138.985 136.628 134.494 134.508 130.65 132.316Z" fill="#81B0C4"/>
<path d="M146.1 158.51C145.992 161.204 146.351 165.48 146.495 168.319C148.291 168.319 149.046 167.923 150.375 167.492C150.519 164.187 149.333 161.132 148.974 158.114C148.255 157.863 146.962 158.546 146.1 158.51ZM118.361 143.275C119.547 154.09 121.236 163.145 124.362 172.738C131.296 174.858 139.632 175.038 145.776 173.133C144.662 167.744 145.13 161.168 144.483 155.384C143.98 151.036 144.231 146.689 143.549 142.269C136.111 140.724 125.619 141.91 118.361 143.275ZM145.309 142.341C145.237 146.976 145.525 151.575 145.884 156.21C147.681 155.959 148.866 155.779 150.519 155.384C149.98 150.928 150.052 145.862 148.938 141.91C147.681 141.946 146.567 141.91 145.309 142.341ZM154.328 141.586C153.465 141.407 152.495 141.586 151.705 141.586C152.1 145.359 152.998 149.527 153.322 153.515C154.579 153.551 155.262 152.94 156.304 152.761C156.376 149.275 156.016 144.461 154.328 141.586ZM168.017 154.09C170.676 153.443 172.329 150.21 171.574 146.868C171.071 144.64 170.209 140.401 169.239 138.963C168.556 137.922 166.652 136.52 165.107 137.49C162.628 139.071 158.28 139.538 156.484 141.443C157.382 144.461 157.669 148.557 158.029 152.365C161.119 152.545 164.891 151.503 167.478 152.617C165.682 153.192 163.382 153.192 161.837 154.054C163.131 154.665 166.077 154.557 168.017 154.09ZM143.369 137.957C141.501 133.574 139.812 129.047 137.045 125.526C134.35 127.322 131.404 129.047 130.614 132.316C134.494 134.508 138.985 136.628 143.369 137.957ZM147.968 124.412C147.788 128.795 147.285 134.544 146.136 137.957C148.902 134.4 151.166 130.304 153.501 126.28C152.495 124.663 150.411 123.262 147.968 124.412ZM142.758 122.579C141.716 122.471 140.818 123.801 139.453 123.226C139.129 123.585 138.842 123.945 138.518 124.304C141.537 127.969 142.938 133.143 145.273 137.418C146.531 133.286 146.387 128.795 146.675 124.304C144.95 124.376 143.98 122.687 142.758 122.579ZM139.417 118.16C139.309 119.417 139.596 119.813 139.848 121.25C143.944 122.543 143.261 115.609 139.417 118.16ZM134.853 116.651C133.093 115.681 130.434 114.639 128.134 114.207C125.296 113.669 125.583 118.088 125.691 120.711C125.799 122.795 126.877 124.987 127.344 126.388C127.56 127.035 127.631 127.717 128.17 127.861C129.141 128.077 132.374 126.819 133.273 126.316C135.213 125.274 136.722 123.585 138.375 122.436C138.411 121.897 138.411 121.322 138.447 120.783C137.44 120.28 136.327 119.956 134.853 119.884C135.824 119.381 137.297 119.381 138.195 118.807C138.195 118.591 138.195 118.375 138.231 118.16C136.578 117.98 135.967 117.262 134.853 116.651ZM117.966 113.597C116.493 115.106 122.098 117.118 123.859 117.226C123.859 116.291 124.398 115.393 124.29 114.711C122.17 114.351 119.403 114.603 117.966 113.597ZM136.075 114.279C136.075 114.423 135.895 114.387 135.86 114.495C137.764 115.968 139.165 116.291 141.716 116.148C142.866 115.321 143.908 114.315 145.13 113.525C142.327 113.776 138.806 115.501 136.075 114.279ZM152.675 119.31C152.603 117.657 152.172 114.243 151.13 113.633C148.974 112.375 145.165 116.184 143.549 116.759C143.728 117.262 144.016 117.657 144.052 118.304C145.022 118.052 146.172 118.232 146.998 118.627C146.028 118.735 144.986 118.735 144.339 119.202C144.123 119.884 144.411 120.783 144.231 121.717C146.495 122.364 149.118 122.687 151.992 122.795C152.531 122.076 152.747 120.711 152.675 119.31ZM115.487 115.034C115.02 114.711 111.894 110.65 111.463 110.83C105.822 113.058 100.54 116.902 95.8331 120.567C100.324 130.232 102.157 142.053 102.48 153.443C107.618 155.851 112.146 159.336 119.152 159.695C118.326 153.982 117.607 148.844 117.14 143.455C115.379 142.7 112.864 143.491 111.211 143.239C111.211 141.263 113.726 142.377 113.942 141.047C114.086 140.041 112.541 139.97 113.044 138.389C114.337 138.856 115.02 139.898 116.385 140.293C117.643 137.562 116.385 132.712 116.565 130.412C116.601 129.981 116.781 128.041 117.751 128.364C118.613 128.651 117.715 133.574 117.787 135.73C117.858 137.742 117.535 139.646 118.361 140.904C125.116 139.97 131.979 139.395 139.309 139.179C137.692 138.496 135.788 137.85 133.704 136.664C132.554 136.017 128.997 134.688 128.673 133.61C128.134 131.885 130.039 130.987 130.362 129.514C126.949 131.382 126.302 127.717 125.476 125.166C124.757 122.831 124.326 121.07 124.146 119.741C121.164 118.232 118.002 116.83 115.487 115.034ZM149.693 111.297C154.4 109.034 155.262 119.813 153.394 123.298C153.681 124.34 154.651 124.735 155.046 125.669C152.423 130.376 149.513 134.76 146.818 139.395C148.794 138.137 151.669 139.179 154.004 138.245C154.867 137.922 155.477 135.945 156.124 134.364C157.921 130.053 159.789 124.591 160.616 120.495C160.795 119.561 161.334 117.513 161.19 116.687C160.975 115.178 158.963 114.064 157.921 113.166C156.016 111.441 154.831 109.968 152.819 108.351C152.064 109.537 150.339 110.327 149.693 111.297ZM104.744 69.582C102.516 72.0612 102.983 76.6603 103.235 79.9659C107.295 77.4148 112.649 80.1815 112.613 84.4931C114.553 84.4572 113.331 82.0858 112.972 80.5408C111.822 75.5465 114.912 70.1569 113.116 65.5938C109.63 65.8812 106.792 67.2825 104.744 69.582ZM120.769 55.2458C115.703 56.683 109.199 60.3839 107.115 64.947C108.732 64.6955 109.846 63.905 111.427 63.7972C112.038 63.7613 112.828 64.0488 113.511 63.8691C114.876 63.5098 116.062 60.4198 117.104 59.27C118.11 58.1562 119.332 57.6532 120.158 56.6471C120.697 56.3956 121.487 56.3956 121.523 55.6051C121.308 55.3536 121.056 55.174 120.769 55.2458ZM147.178 56.6112C141.896 53.629 132.985 51.4013 127.38 54.2038C122.853 56.4675 116.745 60.2042 114.661 64.9111C116.601 69.4742 114.086 73.6421 113.906 78.2772C113.834 80.7564 115.056 82.8762 115.164 85.571C114.481 86.6849 112.469 86.7926 111.068 86.7208C110.6 84.3494 109.774 81.6905 107.331 81.4031C103.882 81.0079 101.33 83.8823 101.187 86.8645C101.007 90.3857 103.882 96.2064 107.978 95.8112C109.559 95.6674 109.954 94.0865 111.678 94.0865C112.613 95.9549 110.241 96.5298 109.99 97.8592C109.918 98.2185 110.169 99.5479 110.349 100.195C111.104 103.249 112.756 107.237 114.373 109.572C116.457 112.555 120.517 112.986 124.901 113.273C125.691 111.585 128.566 111.728 130.434 112.159C128.17 111.261 126.086 109.105 124.362 107.201C122.386 105.009 120.374 102.674 120.266 99.7994C124.038 105.009 127.128 109.572 133.955 111.872C139.129 113.597 145.165 111.082 149.154 108.279C150.807 107.129 151.777 105.261 152.962 103.608C157.346 97.2843 159.394 88.3017 158.963 79.5707C158.783 75.9776 158.783 72.3846 157.561 69.9773C156.304 67.4621 152.028 65.1626 149.513 67.4621C149.046 64.9829 151.597 63.4739 154.579 64.3721C152.459 61.6055 150.232 58.3358 147.178 56.6112ZM157.022 137.85C161.154 135.802 168.844 132.352 171.395 137.85C172.365 139.898 173.479 143.311 173.946 145.431C174.628 148.377 173.191 154.629 170.137 155.599C167.442 156.462 164.316 156.426 161.083 155.779C160.687 155.456 160.292 154.917 159.969 154.342C157.669 154.27 155.477 154.449 153.681 155.42C153.861 157.144 152.711 157.396 151.597 157.755C150.807 160.953 153.214 165.121 152.639 167.995C152.244 170.079 149.693 170.403 147.824 170.762C147.752 171.912 147.896 172.882 148.04 173.852C147.609 175.433 145.704 176.331 143.872 176.547C137.872 177.265 128.781 177.589 123.032 175.505C121.416 171.552 120.158 166.774 118.829 162.282C113.223 162.893 108.66 159.875 104.385 157.863C102.911 157.18 100.863 156.785 100.288 155.599C99.7495 154.449 99.9651 152.258 99.8214 150.21C99.498 144.928 99.1747 139.826 97.8093 134.436C97.1985 131.993 96.0846 129.873 95.3301 127.538C94.6115 125.382 93.3899 122.687 93.0665 120.531C92.5994 117.333 95.6176 117.154 97.5219 115.752C100.504 113.597 102.84 112.411 106.073 110.471C107.043 109.896 109.918 108.459 110.241 107.776C110.888 106.447 109.127 104.578 108.66 103.536C107.906 101.883 107.51 100.482 107.403 98.8652C104.708 98.4341 102.624 96.8172 101.402 95.0207C99.3543 92.0025 97.9171 86.4333 99.7136 82.2295C99.8573 81.9061 100.54 81.2234 100.648 80.7204C100.863 79.7144 100.253 78.385 100.217 77.307C100.037 71.8097 101.151 67.0669 104.852 65.4141C106.361 59.4137 111.75 57.4376 116.816 54.4554C118.721 53.3415 120.805 52.6229 122.961 51.8324C130.686 48.9939 142.578 49.5329 149.01 54.3835C151.741 56.4315 156.088 60.7791 157.633 63.941C161.765 72.2409 161.442 86.1459 158.567 96.2783C158.172 97.6436 157.633 99.6198 156.843 101.273C156.304 102.422 154.615 104.686 154.795 105.692C155.01 106.734 158.675 109.501 159.466 110.255C160.867 111.621 163.562 113.417 163.777 115.142C164.029 116.974 162.987 119.489 162.448 121.25C160.723 127.142 158.999 132.568 157.022 137.85Z" fill="#231F20"/>
<path d="M129.536 97.0328C129.751 96.7454 130.973 96.2783 132.698 97.1047C132.698 97.1047 130.65 97.4281 130.829 100.841L129.967 100.662C130.003 100.698 129.105 97.6077 129.536 97.0328Z" fill="#F7E4CD"/>
<path d="M144.411 126.208C144.411 126.711 143.98 127.142 143.477 127.142C142.974 127.142 142.542 126.711 142.542 126.208C142.542 125.705 142.974 125.274 143.477 125.274C144.016 125.274 144.411 125.705 144.411 126.208Z" fill="#1D1919"/>
<path d="M145.345 130.556C145.345 131.059 144.914 131.49 144.411 131.49C143.908 131.49 143.477 131.059 143.477 130.556C143.477 130.053 143.908 129.622 144.411 129.622C144.95 129.622 145.345 130.017 145.345 130.556Z" fill="#1D1919"/>
<path d="M96.408 185.529C96.1206 185.565 95.8691 185.601 95.6535 185.637C95.4379 185.673 95.2223 185.709 94.9349 185.781C94.6115 185.852 94.4319 185.996 94.36 186.212C94.2881 186.427 94.2163 186.643 94.2163 186.93V195.697C94.2163 196.488 94.0366 197.242 93.7132 197.925C93.3899 198.608 92.9587 199.147 92.3838 199.614C91.8089 200.045 91.1622 200.404 90.4436 200.62C89.725 200.835 88.9704 200.979 88.18 200.979C86.7787 200.979 85.6649 200.656 84.8025 199.973C83.9402 199.29 83.509 198.392 83.509 197.206C83.509 196.524 83.6887 195.949 84.0839 195.482C84.4792 195.015 85.0181 194.799 85.7008 194.799C86.3475 194.799 86.8506 194.979 87.2458 195.374C87.641 195.769 87.8207 196.236 87.8207 196.775C87.8207 197.242 87.641 197.709 87.3176 198.105C86.9943 198.5 86.599 198.895 86.1679 199.219V199.362C86.2397 199.506 86.3835 199.65 86.599 199.758C86.8146 199.865 87.0661 199.901 87.2817 199.901C88.18 199.901 88.8986 199.578 89.4016 198.931C89.9046 198.284 90.1561 197.314 90.1561 196.021V187.038C90.1561 186.787 90.1202 186.535 90.0484 186.356C89.9765 186.176 89.7609 186.032 89.4375 185.888C89.222 185.781 88.9345 185.709 88.6111 185.637C88.2878 185.565 88.0363 185.529 87.8207 185.493V184.631H96.3002V185.529H96.408Z" fill="#231F20"/>
<path d="M109.702 197.889C109.451 198.32 109.127 198.716 108.768 199.111C108.409 199.506 107.978 199.793 107.511 200.081C107.007 200.368 106.504 200.584 106.001 200.728C105.498 200.871 104.888 200.943 104.241 200.943C103.127 200.943 102.193 200.8 101.366 200.476C100.576 200.153 99.8933 199.758 99.3903 199.219C98.8513 198.68 98.492 198.069 98.2046 197.35C97.953 196.632 97.8093 195.841 97.8093 195.015C97.8093 194.26 97.953 193.506 98.2405 192.823C98.5279 192.14 98.9232 191.494 99.4262 190.955C99.9292 190.416 100.576 189.984 101.366 189.661C102.157 189.338 103.019 189.158 103.953 189.158C104.995 189.158 105.858 189.302 106.54 189.553C107.223 189.805 107.762 190.164 108.193 190.595C108.624 191.026 108.912 191.529 109.127 192.104C109.307 192.679 109.415 193.29 109.415 193.937V194.655H101.834C101.834 196.2 102.121 197.35 102.732 198.141C103.307 198.931 104.277 199.326 105.534 199.326C106.253 199.326 106.864 199.147 107.439 198.751C108.014 198.356 108.481 197.889 108.876 197.278L109.702 197.889ZM105.427 193.613C105.427 193.182 105.391 192.715 105.355 192.248C105.319 191.781 105.247 191.386 105.103 191.098C104.959 190.739 104.816 190.488 104.564 190.308C104.349 190.128 104.061 190.056 103.738 190.056C103.163 190.056 102.696 190.344 102.372 190.919C102.013 191.494 101.834 192.428 101.798 193.685L105.427 193.613Z" fill="#231F20"/>
<path d="M125.547 200.548H118.792V199.722C118.936 199.722 119.116 199.686 119.296 199.65C119.511 199.614 119.655 199.578 119.763 199.542C119.906 199.47 120.014 199.326 120.086 199.183C120.158 199.039 120.194 198.787 120.194 198.5V193.254C120.194 192.5 120.05 191.925 119.763 191.529C119.475 191.134 119.08 190.955 118.505 190.955C118.218 190.955 117.93 190.99 117.679 191.098C117.427 191.17 117.176 191.314 116.924 191.494C116.709 191.637 116.529 191.781 116.385 191.961C116.241 192.104 116.134 192.248 116.062 192.392V198.392C116.062 198.644 116.098 198.859 116.17 199.039C116.241 199.219 116.385 199.362 116.529 199.434C116.637 199.506 116.78 199.578 116.96 199.614C117.14 199.65 117.319 199.686 117.499 199.722V200.548H110.672V199.722C110.852 199.722 111.032 199.686 111.247 199.65C111.427 199.614 111.606 199.578 111.75 199.542C112.002 199.47 112.145 199.326 112.253 199.147C112.325 198.967 112.397 198.751 112.397 198.464V191.925C112.397 191.709 112.325 191.458 112.217 191.242C112.109 191.026 111.93 190.847 111.75 190.703C111.606 190.631 111.463 190.523 111.247 190.487C111.032 190.416 110.816 190.38 110.564 190.38V189.553L115.918 189.266L116.098 189.445V191.062H116.134C116.349 190.883 116.601 190.667 116.888 190.38C117.176 190.128 117.463 189.913 117.715 189.733C118.002 189.553 118.361 189.41 118.792 189.266C119.224 189.122 119.727 189.086 120.23 189.086C121.451 189.086 122.35 189.445 122.96 190.128C123.571 190.811 123.859 191.745 123.859 192.895V198.392C123.859 198.68 123.895 198.895 123.966 199.039C124.038 199.219 124.218 199.326 124.434 199.434C124.541 199.47 124.685 199.542 124.865 199.578C125.044 199.614 125.224 199.65 125.476 199.686V200.548H125.547Z" fill="#231F20"/>
<path d="M140.998 200.548H135.716C135.069 199.398 134.458 198.428 133.919 197.638C133.38 196.847 132.877 196.093 132.41 195.446L131.764 196.021V198.464C131.764 198.716 131.799 198.967 131.871 199.111C131.943 199.29 132.087 199.398 132.338 199.506C132.482 199.578 132.626 199.614 132.805 199.65C132.985 199.686 133.165 199.722 133.344 199.722V200.548H126.374V199.722C126.554 199.722 126.733 199.686 126.949 199.65C127.128 199.614 127.308 199.578 127.452 199.542C127.703 199.47 127.847 199.326 127.955 199.147C128.027 198.967 128.099 198.751 128.099 198.464V185.96C128.099 185.709 128.027 185.457 127.919 185.206C127.811 184.954 127.667 184.739 127.452 184.595C127.308 184.523 127.093 184.415 126.805 184.379C126.518 184.307 126.266 184.272 126.015 184.272V183.445L131.584 183.158L131.764 183.337V194.907C132.302 194.404 132.949 193.829 133.632 193.182C134.315 192.536 134.889 191.997 135.285 191.565C135.536 191.314 135.68 191.134 135.68 190.991C135.716 190.847 135.716 190.775 135.716 190.739C135.716 190.595 135.608 190.488 135.357 190.416C135.105 190.344 134.782 190.236 134.279 190.164V189.374H139.956V190.164C139.201 190.38 138.626 190.559 138.231 190.739C137.836 190.919 137.405 191.17 136.937 191.458C136.614 191.673 136.327 191.889 136.039 192.104C135.752 192.32 135.428 192.607 135.033 192.931C135.752 194.009 136.434 194.979 137.045 195.877C137.656 196.775 138.303 197.745 138.985 198.751C139.201 199.111 139.489 199.326 139.848 199.47C140.207 199.578 140.531 199.65 140.89 199.686V200.548H140.998Z" fill="#231F20"/>
<path d="M148.184 200.548H141.105V199.722C141.285 199.722 141.501 199.686 141.68 199.65C141.86 199.614 142.04 199.578 142.147 199.542C142.399 199.47 142.543 199.326 142.65 199.147C142.758 198.967 142.794 198.751 142.794 198.464V191.925C142.794 191.673 142.722 191.422 142.614 191.242C142.507 191.026 142.363 190.883 142.183 190.775C142.04 190.703 141.86 190.595 141.572 190.523C141.285 190.452 141.033 190.38 140.818 190.38V189.553L146.315 189.266L146.495 189.445V198.356C146.495 198.608 146.567 198.823 146.675 199.039C146.782 199.219 146.962 199.362 147.142 199.434C147.285 199.506 147.465 199.578 147.645 199.614C147.824 199.65 148.004 199.686 148.22 199.722V200.548H148.184ZM146.567 185.278C146.567 185.852 146.351 186.32 145.92 186.715C145.489 187.11 144.95 187.326 144.375 187.326C143.764 187.326 143.261 187.11 142.794 186.715C142.363 186.32 142.147 185.817 142.147 185.278C142.147 184.703 142.363 184.236 142.794 183.804C143.225 183.409 143.764 183.194 144.375 183.194C144.986 183.194 145.489 183.409 145.92 183.804C146.351 184.2 146.567 184.703 146.567 185.278Z" fill="#231F20"/>
<path d="M164.029 200.548H157.274V199.722C157.418 199.722 157.597 199.686 157.777 199.65C157.993 199.614 158.136 199.578 158.244 199.542C158.388 199.47 158.496 199.326 158.567 199.183C158.639 199.039 158.675 198.787 158.675 198.5V193.254C158.675 192.5 158.532 191.925 158.244 191.529C157.957 191.134 157.561 190.955 156.986 190.955C156.699 190.955 156.412 190.99 156.16 191.098C155.909 191.206 155.657 191.314 155.406 191.494C155.19 191.637 155.01 191.781 154.867 191.961C154.723 192.104 154.615 192.248 154.543 192.392V198.392C154.543 198.644 154.579 198.859 154.651 199.039C154.723 199.219 154.867 199.362 155.01 199.434C155.118 199.506 155.262 199.578 155.441 199.614C155.621 199.65 155.801 199.686 155.98 199.722V200.548H149.154V199.722C149.333 199.722 149.513 199.686 149.729 199.65C149.908 199.614 150.088 199.578 150.232 199.542C150.483 199.47 150.627 199.326 150.735 199.147C150.806 198.967 150.878 198.751 150.878 198.464V191.925C150.878 191.709 150.806 191.458 150.699 191.242C150.591 191.026 150.411 190.847 150.232 190.703C150.088 190.631 149.944 190.523 149.729 190.487C149.513 190.416 149.297 190.38 149.046 190.38V189.553L154.4 189.266L154.579 189.445V191.062H154.615C154.831 190.883 155.082 190.667 155.37 190.38C155.657 190.128 155.945 189.913 156.196 189.733C156.483 189.553 156.843 189.41 157.274 189.266C157.705 189.122 158.208 189.086 158.711 189.086C159.933 189.086 160.831 189.445 161.442 190.128C162.053 190.811 162.34 191.745 162.34 192.895V198.392C162.34 198.68 162.376 198.895 162.448 199.039C162.52 199.219 162.699 199.326 162.915 199.434C163.023 199.47 163.167 199.542 163.346 199.578C163.526 199.614 163.705 199.65 163.957 199.686V200.548H164.029Z" fill="#231F20"/>
<path d="M170.245 200.943C169.526 200.943 168.808 200.835 168.125 200.62C167.442 200.404 166.903 200.189 166.508 199.937L166.185 200.692H165.322L165.179 196.524H166.005C166.113 196.847 166.293 197.242 166.58 197.674C166.832 198.105 167.155 198.464 167.478 198.823C167.838 199.147 168.233 199.434 168.7 199.686C169.167 199.901 169.634 200.045 170.137 200.045C170.82 200.045 171.323 199.901 171.646 199.65C171.97 199.398 172.149 198.967 172.149 198.428C172.149 198.141 172.077 197.889 171.934 197.674C171.79 197.494 171.574 197.314 171.323 197.171C171.035 197.027 170.712 196.883 170.353 196.775C169.993 196.668 169.562 196.56 169.059 196.38C168.556 196.236 168.125 196.093 167.766 195.913C167.406 195.769 167.011 195.518 166.652 195.194C166.328 194.907 166.041 194.548 165.861 194.152C165.646 193.757 165.574 193.254 165.574 192.679C165.574 191.637 166.005 190.775 166.903 190.128C167.802 189.481 168.951 189.158 170.389 189.158C171.071 189.158 171.682 189.23 172.257 189.374C172.832 189.517 173.299 189.661 173.694 189.841L173.946 189.194H174.808L174.988 193.003H174.197C173.946 192.212 173.479 191.565 172.868 190.991C172.221 190.416 171.538 190.128 170.82 190.128C170.245 190.128 169.778 190.236 169.454 190.488C169.131 190.739 168.951 191.062 168.951 191.494C168.951 192.068 169.203 192.464 169.67 192.715C170.137 192.967 170.82 193.218 171.682 193.434C173.012 193.793 173.982 194.26 174.628 194.835C175.239 195.446 175.563 196.2 175.563 197.099C175.563 198.32 175.095 199.29 174.125 199.937C173.047 200.584 171.79 200.943 170.245 200.943Z" fill="#231F20"/>
</g>
<defs>
<filter id="filter0_d_1372_10644" x="0" y="0" width="260" height="260" filterUnits="userSpaceOnUse" color-interpolation-filters="sRGB">
<feFlood flood-opacity="0" result="BackgroundImageFix"/>
<feColorMatrix in="SourceAlpha" type="matrix" values="0 0 0 0 0 0 0 0 0 0 0 0 0 0 0 0 0 0 127 0" result="hardAlpha"/>
<feOffset dy="4"/>
<feGaussianBlur stdDeviation="20"/>
<feComposite in2="hardAlpha" operator="out"/>
<feColorMatrix type="matrix" values="0 0 0 0 0.0367917 0 0 0 0 0.0348958 0 0 0 0 0.0484375 0 0 0 0.1 0"/>
<feBlend mode="normal" in2="BackgroundImageFix" result="effect1_dropShadow_1372_10644"/>
<feBlend mode="normal" in="SourceGraphic" in2="effect1_dropShadow_1372_10644" result="shape"/>
</filter>
</defs>
</svg>
