<svg width="260" height="261" viewBox="0 0 260 261" fill="none" xmlns="http://www.w3.org/2000/svg">
<g filter="url(#filter0_d_1138_23)">
<rect x="39.724" y="36.4058" width="180" height="180" rx="32" fill="white"/>
<rect x="40.224" y="36.9058" width="179" height="179" rx="31.5" stroke="#D9D9D9"/>
</g>
<path d="M172.11 153.245C166.67 153.108 162.453 153.66 158.916 155.179C157.896 155.592 156.263 155.593 156.127 156.905C156.671 157.457 156.739 158.355 157.216 159.114C158.033 160.494 159.46 162.359 160.752 163.326C162.18 164.43 163.609 165.534 165.105 166.501C167.757 168.158 170.75 169.124 173.335 170.781C174.832 171.747 176.327 172.991 177.823 174.026C178.572 174.578 179.047 175.476 180 175.821V175.614C179.523 174.992 179.387 174.095 178.912 173.405C178.232 172.714 177.551 172.093 176.871 171.402C174.899 168.71 172.451 166.363 169.798 164.43C167.622 162.911 162.86 160.84 161.977 158.285C161.977 158.285 161.908 158.217 161.841 158.148C163.337 158.009 165.105 157.457 166.534 157.043C168.846 156.421 170.954 156.56 173.335 155.938C174.423 155.662 175.511 155.317 176.599 154.971V154.35C175.375 153.108 174.491 151.451 173.199 150.277C169.73 147.239 165.921 144.271 161.977 141.785C159.868 140.404 157.147 139.507 154.903 138.333C154.087 137.919 152.727 137.712 152.251 137.022C151.026 135.503 150.346 133.501 149.462 131.706C147.49 127.908 145.585 123.697 143.885 119.693C142.661 117.001 141.913 114.308 140.416 111.823C133.411 100.086 125.794 92.9754 114.096 86.0022C111.579 84.5526 108.586 83.9312 105.39 83.1721C103.69 83.1026 101.989 82.9649 100.289 82.8955C99.2008 82.4122 98.1124 81.1007 97.1602 80.4793C93.2842 77.9936 83.2856 72.6092 80.4291 79.7202C78.5925 84.2074 83.1499 88.6255 84.7136 90.9044C85.8707 92.4921 87.3664 94.2869 88.1826 96.0821C88.6588 97.255 88.7944 98.4987 89.2706 99.7411C90.3593 102.778 91.3788 106.162 92.8076 108.992C93.5559 110.442 94.3717 111.961 95.324 113.273C95.8682 114.032 96.8201 114.377 97.0245 115.62C96.0726 117.001 96.0042 119.072 95.4596 120.798C93.0113 128.599 93.964 138.264 97.4322 143.994C98.5202 145.72 101.105 149.518 104.574 148.068C107.635 146.825 106.954 142.89 107.838 139.438C108.043 138.609 107.907 138.057 108.314 137.505V137.643C109.267 139.576 110.219 141.44 111.103 143.373C113.211 146.756 116.884 150.277 119.944 152.625C121.577 153.867 122.869 156.007 124.91 156.767V156.559H124.773C124.365 155.938 123.753 155.662 123.209 155.178C121.985 153.936 120.624 152.417 119.673 151.036C116.816 147.17 114.299 142.89 112.055 138.471C110.967 136.331 110.014 133.984 109.131 131.844C108.722 131.015 108.722 129.772 108.042 129.359C107.022 130.877 105.526 132.189 104.778 134.053C103.486 137.022 103.35 140.681 102.873 144.477C102.601 144.547 102.737 144.477 102.601 144.616C100.425 144.063 99.6769 141.785 98.8603 139.852C96.8197 134.951 96.4796 127.08 98.2485 121.419C98.7246 119.969 100.765 115.413 99.949 114.032C99.5409 112.72 98.1801 111.961 97.4322 110.925C96.5484 109.613 95.5957 107.957 94.9839 106.507C93.3514 102.641 92.5352 98.3602 90.767 94.494C89.9508 92.6988 88.5231 90.8354 87.3664 89.1783C86.0744 87.3144 84.646 86.0022 83.6257 83.7931C83.2859 83.034 82.8094 81.7911 83.3536 80.9626C83.4896 80.4102 83.7613 80.2035 84.3059 80.0654C85.1901 79.3055 87.7069 80.2721 88.5904 80.6864C91.1071 81.7213 93.2154 82.6887 95.324 84.1383C96.2759 84.8288 97.2962 86.1406 98.5202 86.4859H99.9486C102.125 86.9688 104.573 86.624 106.614 87.245C110.219 88.4184 113.483 90.1445 116.408 92.0087C125.318 97.7388 132.662 105.885 137.628 115.62C138.444 117.207 138.784 118.658 139.532 120.314C140.961 123.697 142.729 127.149 144.157 130.463C145.585 133.707 146.945 137.022 148.986 139.714C150.006 141.163 154.087 141.923 155.923 142.683C157.284 143.304 159.392 143.857 160.616 144.616C162.928 146.065 165.241 147.723 167.417 149.31C168.506 150.139 171.906 151.865 172.11 153.245Z" fill="#00546B"/>
<path d="M102.737 93.2508C101.581 93.2508 100.765 93.3897 99.9486 93.5964V93.7345H100.085C100.629 94.8392 101.581 95.5988 102.261 96.565C102.805 97.6693 103.281 98.7745 103.825 99.8792C103.893 99.8098 103.961 99.7411 103.961 99.7411C104.914 99.0502 105.389 97.9459 105.389 96.2888C104.981 95.8059 104.913 95.3226 104.573 94.8392C104.165 94.1484 103.281 93.8036 102.737 93.2508Z" fill="#00546B"/>
<defs>
<filter id="filter0_d_1138_23" x="-0.276001" y="0.405762" width="260" height="260" filterUnits="userSpaceOnUse" color-interpolation-filters="sRGB">
<feFlood flood-opacity="0" result="BackgroundImageFix"/>
<feColorMatrix in="SourceAlpha" type="matrix" values="0 0 0 0 0 0 0 0 0 0 0 0 0 0 0 0 0 0 127 0" result="hardAlpha"/>
<feOffset dy="4"/>
<feGaussianBlur stdDeviation="20"/>
<feComposite in2="hardAlpha" operator="out"/>
<feColorMatrix type="matrix" values="0 0 0 0 0.0367917 0 0 0 0 0.0348958 0 0 0 0 0.0484375 0 0 0 0.1 0"/>
<feBlend mode="normal" in2="BackgroundImageFix" result="effect1_dropShadow_1138_23"/>
<feBlend mode="normal" in="SourceGraphic" in2="effect1_dropShadow_1138_23" result="shape"/>
</filter>
</defs>
</svg>
