<svg width="260" height="256" viewBox="0 0 260 256" fill="none" xmlns="http://www.w3.org/2000/svg">
<g filter="url(#filter0_d_1372_10642)">
<rect x="40" y="36" width="180" height="180" rx="32" fill="white"/>
<rect x="40.5" y="36.5" width="179" height="179" rx="31.5" stroke="#D9D9D9"/>
<path d="M129.776 65.625H130.056C131.493 66.3092 132.892 67.0693 134.248 67.902C149.856 76.8778 165.465 85.8564 181.073 94.8379C181.677 95.1602 182.17 95.6565 182.488 96.2624C182.807 96.8684 182.936 97.556 182.858 98.2361C182.824 117.164 182.858 136.087 182.837 155.006C182.634 155.909 182.082 156.695 181.302 157.192C164.704 166.749 148.105 176.3 131.505 185.845C131.103 186.151 130.618 186.33 130.113 186.359C129.608 186.387 129.106 186.264 128.672 186.004C112.054 176.476 95.4526 166.931 78.8668 157.369C78.3277 157.114 77.8763 156.705 77.5693 156.194C77.2623 155.683 77.1135 155.093 77.1418 154.497C77.1418 135.574 77.1418 116.652 77.1418 97.7316C77.1011 97.1386 77.2382 96.547 77.5355 96.0323C77.8327 95.5176 78.2767 95.1032 78.8107 94.8422C94.399 85.8779 109.987 76.9079 125.575 67.9322C126.964 67.1387 128.327 66.2978 129.776 65.625Z" fill="#019639"/>
<path d="M98.8076 102.445C98.8076 118.054 98.8076 133.663 98.8076 149.275C98.7877 150.139 98.9403 150.999 99.2565 151.804C99.5727 152.609 100.046 153.342 100.649 153.962C101.805 155.104 103.317 155.815 104.934 155.977C106.551 156.138 108.174 155.741 109.533 154.851C110.443 154.233 111.187 153.401 111.702 152.429C112.217 151.458 112.486 150.374 112.487 149.275C112.487 137.976 112.465 126.677 112.487 115.378C122.788 127.712 133.111 140.029 143.455 152.328C144.892 153.784 146.672 154.855 148.631 155.445C150.59 156.034 152.666 156.122 154.667 155.7C156.081 155.422 157.368 154.697 158.339 153.633C159.31 152.569 159.914 151.221 160.062 149.788C160.085 133.857 160.085 117.928 160.062 102.001C159.914 100.301 159.134 98.718 157.875 97.5649C156.617 96.4119 154.973 95.7722 153.266 95.7722C151.559 95.7722 149.915 96.4119 148.656 97.5649C147.398 98.718 146.618 100.301 146.469 102.001C146.469 113.481 146.4 124.948 146.469 136.423C136.352 124.495 126.36 112.463 116.282 100.492C114.953 98.7878 113.194 97.4693 111.186 96.6718C109.178 95.8743 106.994 95.6268 104.858 95.9548C103.24 96.1349 101.741 96.8886 100.631 98.0792C99.5206 99.2699 98.8739 100.819 98.8076 102.445Z" fill="white"/>
</g>
<defs>
<filter id="filter0_d_1372_10642" x="0" y="0" width="260" height="260" filterUnits="userSpaceOnUse" color-interpolation-filters="sRGB">
<feFlood flood-opacity="0" result="BackgroundImageFix"/>
<feColorMatrix in="SourceAlpha" type="matrix" values="0 0 0 0 0 0 0 0 0 0 0 0 0 0 0 0 0 0 127 0" result="hardAlpha"/>
<feOffset dy="4"/>
<feGaussianBlur stdDeviation="20"/>
<feComposite in2="hardAlpha" operator="out"/>
<feColorMatrix type="matrix" values="0 0 0 0 0.0367917 0 0 0 0 0.0348958 0 0 0 0 0.0484375 0 0 0 0.1 0"/>
<feBlend mode="normal" in2="BackgroundImageFix" result="effect1_dropShadow_1372_10642"/>
<feBlend mode="normal" in="SourceGraphic" in2="effect1_dropShadow_1372_10642" result="shape"/>
</filter>
</defs>
</svg>
