<svg width="260" height="256" viewBox="0 0 260 256" fill="none" xmlns="http://www.w3.org/2000/svg">
<g filter="url(#filter0_d_1372_6928)">
<path d="M188 36H72C54.3269 36 40 50.3269 40 68V184C40 201.673 54.3269 216 72 216H188C205.673 216 220 201.673 220 184V68C220 50.3269 205.673 36 188 36Z" fill="white"/>
<path d="M188 36.5H72C54.603 36.5 40.5 50.603 40.5 68V184C40.5 201.397 54.603 215.5 72 215.5H188C205.397 215.5 219.5 201.397 219.5 184V68C219.5 50.603 205.397 36.5 188 36.5Z" stroke="#D9D9D9"/>
</g>
<path d="M149.394 144.428C153.084 144.046 155.884 140.865 155.756 137.047C155.629 133.23 152.448 130.175 148.63 130.175H148.376C144.43 130.303 141.377 133.611 141.504 137.556C141.631 139.465 142.395 141.119 143.54 142.265C139.213 150.791 132.596 157.027 122.67 162.244C115.926 165.808 108.927 167.08 101.928 166.19C96.2017 165.426 91.7478 162.881 88.9478 158.681C84.8759 152.446 84.4943 145.701 87.9302 138.956C90.3482 134.12 94.1654 130.557 96.5834 128.775C96.0744 127.121 95.3107 124.321 94.9291 122.285C76.4771 135.648 78.3861 153.718 83.9853 162.244C88.1845 168.608 96.7107 172.553 106.127 172.553C108.672 172.553 111.217 172.298 113.762 171.662C130.051 168.48 142.395 158.808 149.394 144.428ZM171.791 128.648C162.119 117.322 147.867 111.087 131.578 111.087H129.542C128.397 108.796 125.979 107.269 123.307 107.269H123.052C119.107 107.396 116.053 110.705 116.18 114.65C116.308 118.467 119.489 121.522 123.307 121.522H123.561C126.361 121.394 128.778 119.613 129.796 117.195H132.087C141.759 117.195 150.921 119.994 159.193 125.467C165.555 129.666 170.136 135.139 172.681 141.756C174.845 147.101 174.717 152.318 172.427 156.773C168.864 163.517 162.883 167.208 154.993 167.208C149.903 167.208 145.067 165.68 142.522 164.535C141.122 165.808 138.577 167.844 136.795 169.117C142.268 171.662 147.867 173.062 153.211 173.062C165.428 173.062 174.463 166.317 177.899 159.572C181.589 152.191 181.334 139.465 171.791 128.648ZM107.145 146.591C107.273 150.409 110.454 153.463 114.271 153.463H114.526C118.471 153.336 121.525 150.027 121.398 146.082C121.271 142.264 118.089 139.21 114.271 139.21H114.017C113.762 139.21 113.38 139.21 113.127 139.337C107.909 130.684 105.746 121.267 106.509 111.086C107.018 103.451 109.563 96.8333 114.017 91.361C117.707 86.6525 124.834 84.3618 129.67 84.2349C143.158 83.9802 148.884 100.778 149.266 107.523C150.921 107.905 153.72 108.796 155.629 109.432C154.102 88.8165 141.377 78.1267 129.161 78.1267C117.707 78.1267 107.145 86.3985 102.946 98.6153C97.0923 114.904 100.91 130.557 108.036 142.901C107.4 143.792 107.018 145.192 107.145 146.592V146.591Z" fill="#764ABC"/>
<defs>
<filter id="filter0_d_1372_6928" x="0" y="0" width="260" height="260" filterUnits="userSpaceOnUse" color-interpolation-filters="sRGB">
<feFlood flood-opacity="0" result="BackgroundImageFix"/>
<feColorMatrix in="SourceAlpha" type="matrix" values="0 0 0 0 0 0 0 0 0 0 0 0 0 0 0 0 0 0 127 0" result="hardAlpha"/>
<feOffset dy="4"/>
<feGaussianBlur stdDeviation="20"/>
<feComposite in2="hardAlpha" operator="out"/>
<feColorMatrix type="matrix" values="0 0 0 0 0.0367917 0 0 0 0 0.0348958 0 0 0 0 0.0484375 0 0 0 0.1 0"/>
<feBlend mode="normal" in2="BackgroundImageFix" result="effect1_dropShadow_1372_6928"/>
<feBlend mode="normal" in="SourceGraphic" in2="effect1_dropShadow_1372_6928" result="shape"/>
</filter>
</defs>
</svg>
