<svg width="261" height="256" viewBox="0 0 261 256" fill="none" xmlns="http://www.w3.org/2000/svg">
<g filter="url(#filter0_d_1372_31)">
<rect x="40.3433" y="36.4058" width="180" height="180" rx="32" fill="white"/>
<rect x="40.8433" y="36.9058" width="179" height="179" rx="31.5" stroke="#D9D9D9"/>
</g>
<path d="M80 76H180V176H80V76Z" fill="#017ACB"/>
<path d="M128.016 113.031H132.813V121.312H119.844V158.156L119.5 158.25C119.031 158.375 112.859 158.375 111.531 158.234L110.469 158.141V121.312H97.5V113.031L101.609 112.984C103.859 112.953 109.641 112.953 114.453 112.984C119.266 113.016 125.359 113.031 128.016 113.031V113.031ZM164.625 154.25C162.719 156.266 160.672 157.391 157.266 158.312C155.781 158.719 155.531 158.734 152.188 158.719C148.844 158.703 148.578 158.703 146.953 158.281C142.75 157.203 139.359 155.094 137.047 152.109C136.391 151.266 135.313 149.516 135.313 149.297C135.313 149.234 135.469 149.094 135.672 149C135.875 148.906 136.297 148.641 136.641 148.437C136.984 148.234 137.609 147.859 138.031 147.641C138.453 147.422 139.672 146.703 140.734 146.062C141.797 145.422 142.766 144.906 142.875 144.906C142.984 144.906 143.188 145.125 143.344 145.391C144.281 146.969 146.469 148.984 148.016 149.672C148.969 150.078 151.078 150.531 152.094 150.531C153.031 150.531 154.75 150.125 155.672 149.703C156.656 149.25 157.156 148.797 157.75 147.891C158.156 147.25 158.203 147.078 158.188 145.859C158.188 144.734 158.125 144.422 157.813 143.906C156.938 142.469 155.75 141.719 150.938 139.594C145.969 137.391 143.734 136.078 141.922 134.312C140.578 133 140.313 132.641 139.469 131C138.375 128.891 138.234 128.203 138.219 125.062C138.203 122.859 138.25 122.141 138.484 121.391C138.813 120.266 139.875 118.094 140.359 117.547C141.359 116.375 141.719 116.016 142.422 115.437C144.547 113.687 147.859 112.531 151.031 112.422C151.391 112.422 152.578 112.484 153.688 112.562C156.875 112.828 159.047 113.609 161.141 115.281C162.719 116.531 165.109 119.469 164.875 119.859C164.719 120.094 158.484 124.25 158.078 124.375C157.828 124.453 157.656 124.359 157.313 123.953C155.188 121.406 154.328 120.859 152.266 120.734C150.797 120.641 150.016 120.812 149.031 121.469C148 122.156 147.5 123.203 147.5 124.656C147.516 126.781 148.328 127.781 151.328 129.266C153.266 130.219 154.922 131 155.047 131C155.234 131 159.25 133 160.297 133.625C165.172 136.484 167.156 139.422 167.672 144.484C168.047 148.297 166.969 151.781 164.625 154.25V154.25Z" fill="white"/>
<defs>
<filter id="filter0_d_1372_31" x="0.343262" y="0.405762" width="260" height="260" filterUnits="userSpaceOnUse" color-interpolation-filters="sRGB">
<feFlood flood-opacity="0" result="BackgroundImageFix"/>
<feColorMatrix in="SourceAlpha" type="matrix" values="0 0 0 0 0 0 0 0 0 0 0 0 0 0 0 0 0 0 127 0" result="hardAlpha"/>
<feOffset dy="4"/>
<feGaussianBlur stdDeviation="20"/>
<feComposite in2="hardAlpha" operator="out"/>
<feColorMatrix type="matrix" values="0 0 0 0 0.0367917 0 0 0 0 0.0348958 0 0 0 0 0.0484375 0 0 0 0.1 0"/>
<feBlend mode="normal" in2="BackgroundImageFix" result="effect1_dropShadow_1372_31"/>
<feBlend mode="normal" in="SourceGraphic" in2="effect1_dropShadow_1372_31" result="shape"/>
</filter>
</defs>
</svg>
