<svg width="804" height="400" viewBox="0 0 804 400" fill="none" xmlns="http://www.w3.org/2000/svg">
<path fill-rule="evenodd" clip-rule="evenodd" d="M744.685 58.7107C732.201 46.2036 718.07 35.341 702.645 26.4759L712.94 84.8606L713.779 89.617L744.685 58.7107ZM713.569 89.8268L708.884 90.6529L650.488 100.95C661.88 106.321 672.202 113.591 681.045 122.351L713.569 89.8268ZM641.987 97.3716L708.016 85.7288L697.019 23.3619C669.023 8.45052 637.064 0 603.132 0C548.05 0 498.17 22.2666 462 58.2896L526.14 122.429C546.023 102.693 573.403 90.5 603.632 90.5C617.122 90.5 630.044 92.9283 641.987 97.3716Z" fill="#A25AFF"/>
<path fill-rule="evenodd" clip-rule="evenodd" d="M340.685 58.7107C328.201 46.2036 314.07 35.341 298.645 26.4759L308.94 84.8606L309.779 89.617L340.685 58.7107ZM309.569 89.8268L304.884 90.6529L246.488 100.95C257.88 106.321 268.202 113.591 277.045 122.351L309.569 89.8268ZM237.987 97.3716L304.016 85.7288L293.019 23.3619C265.023 8.45052 233.064 0 199.132 0C144.05 0 94.1698 22.2666 58 58.2896L122.14 122.429C142.023 102.693 169.403 90.5 199.632 90.5C213.122 90.5 226.044 92.9283 237.987 97.3716Z" fill="#F3B263"/>
<path fill-rule="evenodd" clip-rule="evenodd" d="M462.711 58C450.204 70.4839 439.341 84.6149 430.476 100.04L488.861 89.7451L493.617 88.9064L462.711 58ZM493.827 89.1161L494.653 93.8009L504.95 152.197C510.322 140.805 517.591 130.483 526.351 121.64L493.827 89.1161ZM501.372 160.698L489.729 94.6691L427.362 105.666C412.45 133.662 404 165.621 404 199.553C404 254.635 426.267 304.515 462.29 340.685L526.429 276.545C506.693 256.662 494.5 229.282 494.5 199.053C494.5 185.563 496.928 172.641 501.372 160.698Z" fill="#A25AFF"/>
<path fill-rule="evenodd" clip-rule="evenodd" d="M58.7107 58C46.2036 70.4839 35.341 84.6149 26.4759 100.04L84.8607 89.7451L89.6171 88.9064L58.7107 58ZM89.8269 89.1161L90.6529 93.8009L100.95 152.197C106.322 140.805 113.591 130.483 122.351 121.64L89.8269 89.1161ZM97.3717 160.698L85.729 94.6691L23.3618 105.666C8.4505 133.662 0 165.621 0 199.553C0 254.635 22.2666 304.515 58.2896 340.685L122.429 276.545C102.693 256.662 90.5 229.282 90.5 199.053C90.5 185.563 92.9283 172.641 97.3717 160.698Z" fill="#F3B263"/>
<path fill-rule="evenodd" clip-rule="evenodd" d="M462 340.719C474.484 353.226 488.615 364.088 504.04 372.954L493.745 314.569L492.906 309.812L462 340.719ZM493.116 309.603L497.801 308.777L556.197 298.48C544.805 293.108 534.483 285.838 525.64 277.078L493.116 309.603ZM564.698 302.058L498.669 313.7L509.666 376.068C537.662 390.979 569.621 399.429 603.553 399.429C658.635 399.429 708.515 377.163 744.685 341.14L680.545 277C660.662 296.736 633.282 308.929 603.053 308.929C589.563 308.929 576.641 306.501 564.698 302.058Z" fill="#A25AFF"/>
<path fill-rule="evenodd" clip-rule="evenodd" d="M58 340.719C70.484 353.226 84.615 364.088 100.04 372.954L89.7451 314.569L88.9064 309.812L58 340.719ZM89.1162 309.603L93.8009 308.777L152.197 298.48C140.805 293.108 130.483 285.838 121.64 277.078L89.1162 309.603ZM160.698 302.058L94.6691 313.7L105.666 376.068C133.662 390.979 165.621 399.429 199.553 399.429C254.635 399.429 304.515 377.163 340.685 341.14L276.545 277C256.662 296.736 229.282 308.929 199.053 308.929C185.563 308.929 172.641 306.501 160.698 302.058Z" fill="#F3B263"/>
<path fill-rule="evenodd" clip-rule="evenodd" d="M744.719 340.685C757.226 328.201 768.088 314.07 776.954 298.645L718.569 308.94L713.812 309.779L744.719 340.685ZM713.603 309.569L712.777 304.884L702.48 246.488C697.108 257.88 689.838 268.202 681.078 277.045L713.603 309.569ZM706.058 237.987L717.7 304.016L780.068 293.019C794.979 265.023 803.429 233.064 803.429 199.132C803.429 144.05 781.163 94.1698 745.14 58L681 122.14C700.736 142.023 712.929 169.403 712.929 199.632C712.929 213.122 710.501 226.045 706.058 237.987Z" fill="#A25AFF"/>
<path fill-rule="evenodd" clip-rule="evenodd" d="M340.719 340.685C353.226 328.201 364.088 314.07 372.954 298.645L314.569 308.94L309.812 309.779L340.719 340.685ZM309.603 309.569L308.777 304.884L298.48 246.488C293.108 257.88 285.838 268.202 277.078 277.045L309.603 309.569ZM302.058 237.987L313.7 304.016L376.068 293.019C390.979 265.023 399.429 233.064 399.429 199.132C399.429 144.05 377.163 94.1698 341.14 58L277 122.14C296.736 142.023 308.929 169.403 308.929 199.632C308.929 213.122 306.501 226.045 302.058 237.987Z" fill="#F3B263"/>
<path d="M157.654 218H148.748L148.807 213.4H157.654C160.701 213.4 163.24 212.766 165.271 211.496C167.303 210.207 168.826 208.41 169.842 206.105C170.877 203.781 171.395 201.066 171.395 197.961V195.354C171.395 192.912 171.102 190.744 170.516 188.85C169.93 186.936 169.07 185.324 167.938 184.016C166.805 182.688 165.418 181.682 163.777 180.998C162.156 180.314 160.291 179.973 158.182 179.973H148.572V175.344H158.182C160.975 175.344 163.523 175.812 165.828 176.75C168.133 177.668 170.115 179.006 171.775 180.764C173.455 182.502 174.744 184.611 175.643 187.092C176.541 189.553 176.99 192.326 176.99 195.412V197.961C176.99 201.047 176.541 203.83 175.643 206.311C174.744 208.771 173.445 210.871 171.746 212.609C170.066 214.348 168.035 215.686 165.652 216.623C163.289 217.541 160.623 218 157.654 218ZM151.766 175.344V218H146.111V175.344H151.766ZM212.586 213.4V218H189.998V213.4H212.586ZM191.141 175.344V218H185.486V175.344H191.141ZM209.598 193.684V198.283H189.998V193.684H209.598ZM212.293 175.344V179.973H189.998V175.344H212.293ZM233.357 211.525L245.926 175.344H252.049L236.258 218H231.893L233.357 211.525ZM221.609 175.344L234.061 211.525L235.613 218H231.248L215.486 175.344H221.609Z" fill="black"/>
<path d="M581.4 195.324V198.02C581.4 201.223 581 204.094 580.199 206.633C579.398 209.172 578.246 211.33 576.742 213.107C575.238 214.885 573.432 216.242 571.322 217.18C569.232 218.117 566.889 218.586 564.291 218.586C561.771 218.586 559.457 218.117 557.348 217.18C555.258 216.242 553.441 214.885 551.898 213.107C550.375 211.33 549.193 209.172 548.354 206.633C547.514 204.094 547.094 201.223 547.094 198.02V195.324C547.094 192.121 547.504 189.26 548.324 186.74C549.164 184.201 550.346 182.043 551.869 180.266C553.393 178.469 555.199 177.102 557.289 176.164C559.398 175.227 561.713 174.758 564.232 174.758C566.83 174.758 569.174 175.227 571.264 176.164C573.373 177.102 575.18 178.469 576.684 180.266C578.207 182.043 579.369 184.201 580.17 186.74C580.99 189.26 581.4 192.121 581.4 195.324ZM575.805 198.02V195.266C575.805 192.727 575.541 190.48 575.014 188.527C574.506 186.574 573.754 184.934 572.758 183.605C571.762 182.277 570.541 181.271 569.096 180.588C567.67 179.904 566.049 179.562 564.232 179.562C562.475 179.562 560.883 179.904 559.457 180.588C558.051 181.271 556.84 182.277 555.824 183.605C554.828 184.934 554.057 186.574 553.51 188.527C552.963 190.48 552.689 192.727 552.689 195.266V198.02C552.689 200.578 552.963 202.844 553.51 204.816C554.057 206.77 554.838 208.42 555.854 209.768C556.889 211.096 558.109 212.102 559.516 212.785C560.941 213.469 562.533 213.811 564.291 213.811C566.127 213.811 567.758 213.469 569.184 212.785C570.609 212.102 571.811 211.096 572.787 209.768C573.783 208.42 574.535 206.77 575.043 204.816C575.551 202.844 575.805 200.578 575.805 198.02ZM605.6 201.271H594.203V196.672H605.6C607.807 196.672 609.594 196.32 610.961 195.617C612.328 194.914 613.324 193.938 613.949 192.688C614.594 191.438 614.916 190.012 614.916 188.41C614.916 186.945 614.594 185.568 613.949 184.279C613.324 182.99 612.328 181.955 610.961 181.174C609.594 180.373 607.807 179.973 605.6 179.973H595.521V218H589.867V175.344H605.6C608.822 175.344 611.547 175.9 613.773 177.014C616 178.127 617.689 179.67 618.842 181.643C619.994 183.596 620.57 185.832 620.57 188.352C620.57 191.086 619.994 193.42 618.842 195.354C617.689 197.287 616 198.762 613.773 199.777C611.547 200.773 608.822 201.271 605.6 201.271ZM650.453 207.219C650.453 206.223 650.297 205.344 649.984 204.582C649.691 203.801 649.164 203.098 648.402 202.473C647.66 201.848 646.625 201.252 645.297 200.686C643.988 200.119 642.328 199.543 640.316 198.957C638.207 198.332 636.303 197.639 634.604 196.877C632.904 196.096 631.449 195.207 630.238 194.211C629.027 193.215 628.1 192.072 627.455 190.783C626.811 189.494 626.488 188.02 626.488 186.359C626.488 184.699 626.83 183.166 627.514 181.76C628.197 180.354 629.174 179.133 630.443 178.098C631.732 177.043 633.266 176.223 635.043 175.637C636.82 175.051 638.803 174.758 640.99 174.758C644.193 174.758 646.908 175.373 649.135 176.604C651.381 177.814 653.09 179.406 654.262 181.379C655.434 183.332 656.02 185.422 656.02 187.648H650.395C650.395 186.047 650.053 184.631 649.369 183.4C648.686 182.15 647.65 181.174 646.264 180.471C644.877 179.748 643.119 179.387 640.99 179.387C638.979 179.387 637.318 179.689 636.01 180.295C634.701 180.9 633.725 181.721 633.08 182.756C632.455 183.791 632.143 184.973 632.143 186.301C632.143 187.199 632.328 188.02 632.699 188.762C633.09 189.484 633.686 190.158 634.486 190.783C635.307 191.408 636.342 191.984 637.592 192.512C638.861 193.039 640.375 193.547 642.133 194.035C644.555 194.719 646.645 195.48 648.402 196.32C650.16 197.16 651.605 198.107 652.738 199.162C653.891 200.197 654.74 201.379 655.287 202.707C655.854 204.016 656.137 205.5 656.137 207.16C656.137 208.898 655.785 210.471 655.082 211.877C654.379 213.283 653.373 214.484 652.064 215.48C650.756 216.477 649.184 217.248 647.348 217.795C645.531 218.322 643.5 218.586 641.254 218.586C639.281 218.586 637.338 218.312 635.424 217.766C633.529 217.219 631.801 216.398 630.238 215.305C628.695 214.211 627.455 212.863 626.518 211.262C625.6 209.641 625.141 207.766 625.141 205.637H630.766C630.766 207.102 631.049 208.361 631.615 209.416C632.182 210.451 632.953 211.311 633.93 211.994C634.926 212.678 636.049 213.186 637.299 213.518C638.568 213.83 639.887 213.986 641.254 213.986C643.227 213.986 644.896 213.713 646.264 213.166C647.631 212.619 648.666 211.838 649.369 210.822C650.092 209.807 650.453 208.605 650.453 207.219Z" fill="black"/>
</svg>
