<svg width="100" height="100" viewBox="0 0 100 100" fill="none" xmlns="http://www.w3.org/2000/svg">
<rect width="100" height="100" rx="10" fill="#3178C6"/>
<path d="M59.5234 47.9727H45.8125V86H40.2168V47.9727H26.5352V43.3438H59.5234V47.9727Z" fill="white"/>
<path d="M59.5234 47.9727V48.9727H60.5234V47.9727H59.5234ZM45.8125 47.9727V46.9727H44.8125V47.9727H45.8125ZM45.8125 86V87H46.8125V86H45.8125ZM40.2168 86H39.2168V87H40.2168V86ZM40.2168 47.9727H41.2168V46.9727H40.2168V47.9727ZM26.5352 47.9727H25.5352V48.9727H26.5352V47.9727ZM26.5352 43.3438V42.3438H25.5352V43.3438H26.5352ZM59.5234 43.3438H60.5234V42.3438H59.5234V43.3438ZM59.5234 46.9727H45.8125V48.9727H59.5234V46.9727ZM44.8125 47.9727V86H46.8125V47.9727H44.8125ZM45.8125 85H40.2168V87H45.8125V85ZM41.2168 86V47.9727H39.2168V86H41.2168ZM40.2168 46.9727H26.5352V48.9727H40.2168V46.9727ZM27.5352 47.9727V43.3438H25.5352V47.9727H27.5352ZM26.5352 44.3438H59.5234V42.3438H26.5352V44.3438ZM58.5234 43.3438V47.9727H60.5234V43.3438H58.5234Z" fill="white"/>
<path d="M75.707 66.9863C70.8828 65.5996 67.3672 63.9004 65.1602 61.8887C62.9727 59.8574 61.8789 57.3574 61.8789 54.3887C61.8789 51.0293 63.2168 48.2559 65.8926 46.0684C68.5879 43.8613 72.084 42.7578 76.3809 42.7578C79.3105 42.7578 81.918 43.3242 84.2031 44.457C86.5078 45.5898 88.2852 47.1523 89.5352 49.1445C90.8047 51.1367 91.4395 53.3145 91.4395 55.6777H85.7852C85.7852 53.0996 84.9648 51.0781 83.3242 49.6133C81.6836 48.1289 79.3691 47.3867 76.3809 47.3867C73.6074 47.3867 71.4395 48.002 69.877 49.2324C68.334 50.4434 67.5625 52.1328 67.5625 54.3008C67.5625 56.0391 68.2949 57.5137 69.7598 58.7246C71.2441 59.916 73.7539 61.0098 77.2891 62.0059C80.8438 63.002 83.6172 64.1055 85.6094 65.3164C87.6211 66.5078 89.1055 67.9043 90.0625 69.5059C91.0391 71.1074 91.5273 72.9922 91.5273 75.1602C91.5273 78.6172 90.1797 81.3906 87.4844 83.4805C84.7891 85.5508 81.1855 86.5859 76.6738 86.5859C73.7441 86.5859 71.0098 86.0293 68.4707 84.916C65.9316 83.7832 63.9688 82.2402 62.582 80.2871C61.2148 78.334 60.5312 76.1172 60.5312 73.6367H66.1855C66.1855 76.2148 67.1328 78.2559 69.0273 79.7598C70.9414 81.2441 73.4902 81.9863 76.6738 81.9863C79.6426 81.9863 81.918 81.3809 83.5 80.1699C85.082 78.959 85.873 77.3086 85.873 75.2188C85.873 73.1289 85.1406 71.5176 83.6758 70.3848C82.2109 69.2324 79.5547 68.0996 75.707 66.9863Z" fill="white"/>
<path d="M75.707 66.9863L75.985 66.0257L75.9833 66.0252L75.707 66.9863ZM65.1602 61.8887L64.4797 62.6215L64.4865 62.6277L65.1602 61.8887ZM65.8926 46.0684L66.5255 46.8426L66.5261 46.8421L65.8926 46.0684ZM84.2031 44.457L83.759 45.353L83.762 45.3545L84.2031 44.457ZM89.5352 49.1445L88.6881 49.676L88.6918 49.6819L89.5352 49.1445ZM91.4395 55.6777V56.6777H92.4395V55.6777H91.4395ZM85.7852 55.6777H84.7852V56.6777H85.7852V55.6777ZM83.3242 49.6133L82.6533 50.3548L82.6582 50.3592L83.3242 49.6133ZM69.877 49.2324L70.4943 50.0191L70.4956 50.0181L69.877 49.2324ZM69.7598 58.7246L69.1226 59.4954L69.1282 59.5L69.1338 59.5045L69.7598 58.7246ZM77.2891 62.0059L77.0179 62.9684L77.0192 62.9688L77.2891 62.0059ZM85.6094 65.3164L85.0899 66.171L85.0998 66.1768L85.6094 65.3164ZM90.0625 69.5059L89.2041 70.0188L89.2087 70.0265L90.0625 69.5059ZM87.4844 83.4805L88.0935 84.2735L88.0971 84.2707L87.4844 83.4805ZM68.4707 84.916L68.0633 85.8293L68.0691 85.8318L68.4707 84.916ZM62.582 80.2871L61.7628 80.8606L61.7666 80.866L62.582 80.2871ZM60.5312 73.6367V72.6367H59.5312V73.6367H60.5312ZM66.1855 73.6367H67.1855V72.6367H66.1855V73.6367ZM69.0273 79.7598L68.4056 80.543L68.4145 80.55L69.0273 79.7598ZM83.6758 70.3848L83.0575 71.1707L83.064 71.1758L83.6758 70.3848ZM75.9833 66.0252C71.219 64.6557 67.8748 63.01 65.8338 61.1496L64.4865 62.6277C66.8595 64.7907 70.5467 66.5435 75.4308 67.9474L75.9833 66.0252ZM65.8406 61.1559C63.8556 59.3127 62.8789 57.0776 62.8789 54.3887H60.8789C60.8789 57.6372 62.0897 60.4022 64.4797 62.6215L65.8406 61.1559ZM62.8789 54.3887C62.8789 51.3392 64.0743 48.8465 66.5255 46.8426L65.2596 45.2942C62.3593 47.6652 60.8789 50.7194 60.8789 54.3887H62.8789ZM66.5261 46.8421C69.004 44.8131 72.2594 43.7578 76.3809 43.7578V41.7578C71.9086 41.7578 68.1718 42.9096 65.259 45.2947L66.5261 46.8421ZM76.3809 43.7578C79.1794 43.7578 81.6311 44.2981 83.759 45.353L84.6473 43.5611C82.2049 42.3503 79.4417 41.7578 76.3809 41.7578V43.7578ZM83.762 45.3545C85.9159 46.4132 87.5458 47.8555 88.6881 49.676L90.3822 48.613C89.0245 46.4492 87.0997 44.7665 84.6442 43.5596L83.762 45.3545ZM88.6918 49.6819C89.859 51.5135 90.4395 53.5048 90.4395 55.6777H92.4395C92.4395 53.1241 91.7504 50.7599 90.3785 48.6071L88.6918 49.6819ZM91.4395 54.6777H85.7852V56.6777H91.4395V54.6777ZM86.7852 55.6777C86.7852 52.8686 85.8805 50.5551 83.9902 48.8673L82.6582 50.3592C84.0492 51.6012 84.7852 53.3306 84.7852 55.6777H86.7852ZM83.9951 48.8717C82.1144 47.1701 79.529 46.3867 76.3809 46.3867V48.3867C79.2093 48.3867 81.2528 49.0877 82.6533 50.3548L83.9951 48.8717ZM76.3809 46.3867C73.47 46.3867 71.0551 47.0318 69.2583 48.4468L70.4956 50.0181C71.8238 48.9721 73.7448 48.3867 76.3809 48.3867V46.3867ZM69.2596 48.4458C67.4474 49.868 66.5625 51.8627 66.5625 54.3008H68.5625C68.5625 52.4029 69.2206 51.0187 70.4943 50.0191L69.2596 48.4458ZM66.5625 54.3008C66.5625 56.3675 67.4523 58.1146 69.1226 59.4954L70.3969 57.9539C69.1375 56.9128 68.5625 55.7107 68.5625 54.3008H66.5625ZM69.1338 59.5045C70.7805 60.8262 73.4512 61.9634 77.0179 62.9684L77.5603 61.0433C74.0566 60.0561 71.7077 59.0058 70.3857 57.9447L69.1338 59.5045ZM77.0192 62.9688C80.5309 63.9528 83.2073 65.0265 85.09 66.1709L86.1288 64.4619C84.0271 63.1844 81.1566 62.0511 77.5589 61.0429L77.0192 62.9688ZM85.0998 66.1768C87.0038 67.3044 88.3516 68.5921 89.2041 70.0188L90.9209 68.9929C89.8594 67.2165 88.2384 65.7112 86.1189 64.456L85.0998 66.1768ZM89.2087 70.0265C90.0756 71.4481 90.5273 73.1467 90.5273 75.1602H92.5273C92.5273 72.8376 92.0026 70.7668 90.9163 68.9853L89.2087 70.0265ZM90.5273 75.1602C90.5273 78.313 89.3188 80.7928 86.8716 82.6902L88.0971 84.2707C91.0406 81.9885 92.5273 78.9214 92.5273 75.1602H90.5273ZM86.8752 82.6874C84.4042 84.5855 81.0372 85.5859 76.6738 85.5859V87.5859C81.3339 87.5859 85.1739 86.5161 88.0935 84.2735L86.8752 82.6874ZM76.6738 85.5859C73.8744 85.5859 71.2776 85.0548 68.8723 84.0002L68.0691 85.8318C70.7419 87.0038 73.6139 87.5859 76.6738 87.5859V85.5859ZM68.8781 84.0028C66.4759 82.931 64.6649 81.4933 63.3974 79.7082L61.7666 80.866C63.2726 82.9872 65.3874 84.6354 68.0633 85.8292L68.8781 84.0028ZM63.4013 79.7136C62.1567 77.9357 61.5312 75.9208 61.5312 73.6367H59.5312C59.5312 76.3135 60.273 78.7323 61.7628 80.8606L63.4013 79.7136ZM60.5312 74.6367H66.1855V72.6367H60.5312V74.6367ZM65.1855 73.6367C65.1855 76.4968 66.2545 78.8354 68.4056 80.543L69.6491 78.9765C68.0111 77.6763 67.1855 75.9329 67.1855 73.6367H65.1855ZM68.4145 80.55C70.5521 82.2077 73.3382 82.9863 76.6738 82.9863V80.9863C73.6422 80.9863 71.3307 80.2806 69.6402 78.9695L68.4145 80.55ZM76.6738 82.9863C79.7594 82.9863 82.2842 82.3598 84.1078 80.964L82.8922 79.3758C81.5517 80.4019 79.5257 80.9863 76.6738 80.9863V82.9863ZM84.1078 80.964C85.9508 79.5533 86.873 77.6021 86.873 75.2188H84.873C84.873 77.015 84.2132 78.3647 82.8922 79.3758L84.1078 80.964ZM86.873 75.2188C86.873 72.8647 86.031 70.942 84.2875 69.5937L83.064 71.1758C84.2502 72.0931 84.873 73.3931 84.873 75.2188H86.873ZM84.2941 69.5988C82.6661 68.3182 79.8468 67.1431 75.985 66.0257L75.4291 67.9469C79.2625 69.0561 81.7557 70.1467 83.0575 71.1707L84.2941 69.5988Z" fill="white"/>
</svg>
