<svg width="40" height="40" viewBox="0 0 40 40" fill="none" xmlns="http://www.w3.org/2000/svg">
<rect width="40" height="40" rx="10" fill="#FEE500"/>
<rect x="2" y="2" width="36" height="36" fill="#FEE500"/>
<ellipse cx="20" cy="18.3448" rx="14" ry="10.3448" fill="#1A1A1C"/>
<path d="M12.4001 23.7241L16.4001 25.7931L11.4001 32L12.4001 23.7241Z" fill="#1A1A1C"/>
<path d="M10.4331 22V16.6475H8.52148V15.5576H13.6411V16.6475H11.7339V22H10.4331ZM19.6265 22H18.2114L17.6489 20.5366H15.0737L14.542 22H13.1621L15.6714 15.5576H17.0469L19.6265 22ZM17.2314 19.4512L16.3438 17.0605L15.4736 19.4512H17.2314ZM20.356 22V15.6104H21.6567V20.9146H24.8911V22H20.356ZM25.8403 22V15.5576H27.1411V18.4185L29.769 15.5576H31.5181L29.0923 18.0669L31.6499 22H29.9668L28.1958 18.9766L27.1411 20.0532V22H25.8403Z" fill="#FEE500"/>
</svg>
