<svg width="174" height="174" viewBox="0 0 174 174" fill="none" xmlns="http://www.w3.org/2000/svg">
<path fill-rule="evenodd" clip-rule="evenodd" d="M99.1843 94.3513C96.7611 98.526 92.2422 101.333 87.0677 101.333L87.0677 107.333H89.0676V130.333H87.0676V137.333C105.561 137.333 121.709 127.294 130.359 112.367L124.291 108.861L123.307 110.565L103.388 99.0654L104.215 97.6332C104.271 97.5406 104.326 97.4475 104.38 97.354L99.1843 94.3513ZM142.482 119.374C131.411 138.481 110.74 151.333 87.0676 151.333V157.333H91.0676V165.333C91.0676 167.542 89.2768 169.333 87.0676 169.333V173.333C91.4859 173.333 95.0676 169.752 95.0676 165.333V157.333V156.881C114.797 154.637 132.038 144.19 143.296 129.034L143.689 129.262L150.618 133.262C154.43 135.462 159.3 134.169 161.521 130.376L158.058 128.375C156.942 130.256 154.517 130.894 152.618 129.797L145.689 125.797L147.083 123.384C147.284 123.05 147.482 122.714 147.678 122.376L142.482 119.374ZM161.852 130.567C154.268 143.685 143.367 154.578 130.243 162.151C117.115 169.727 102.225 173.715 87.0676 173.715L87.0676 173.731C102.225 173.731 117.115 169.743 130.243 162.167C143.371 154.591 154.275 143.695 161.859 130.571L161.852 130.567ZM93.0676 106.418V107.333V130.333V130.928C104.724 129.338 114.928 123.184 121.819 114.325L121.307 114.029L101.388 102.529L100.59 102.069C98.4575 104.027 95.8982 105.529 93.0676 106.418Z" fill="#B085F5"/>
<path fill-rule="evenodd" clip-rule="evenodd" d="M74.9481 94.3463L69.7511 97.3468C69.807 97.4433 69.8636 97.5392 69.9211 97.6346L70.7472 99.0654L50.8286 110.565L49.8354 108.845L43.766 112.349C52.4102 127.28 68.555 137.326 87.0467 137.333L87.0496 130.333H85.0676V107.333L87.0593 107.333L87.0618 101.333C81.8876 101.331 77.3697 98.5222 74.9481 94.3463ZM87.0408 151.333C63.3701 151.324 42.7038 138.463 31.6396 119.35L26.4426 122.351C26.6432 122.698 26.8468 123.042 27.0532 123.385L28.4459 125.797L21.5177 129.797C19.6084 130.9 17.1682 130.249 16.0604 128.345L12.5963 130.345C14.8087 134.162 19.6953 135.468 23.5177 133.262L30.4459 129.262L30.8392 129.034C42.0976 144.19 59.3381 154.637 79.0676 156.881V157.333V165.333C79.0676 169.74 82.6299 173.314 87.0316 173.333L87.0315 173.715C71.8744 173.709 56.9858 169.715 43.861 162.133C30.7401 154.554 19.8437 143.657 12.2654 130.536L12.2587 130.54C19.8372 143.666 30.7362 154.568 43.861 162.149C56.9858 169.73 71.8744 173.725 87.0315 173.731L87.0316 173.333L87.0333 169.333C84.84 169.315 83.0676 167.531 83.0676 165.333V157.333L87.0383 157.333L87.0408 151.333ZM52.3167 114.325C59.2075 123.184 69.4113 129.338 81.0676 130.928V130.333V107.333V106.418C78.2371 105.529 75.6778 104.027 73.5448 102.069L72.7472 102.53L52.8286 114.03L52.3167 114.325Z" fill="#FFBB6D"/>
<path fill-rule="evenodd" clip-rule="evenodd" d="M26.4289 52.3393C26.207 52.723 25.9886 53.109 25.7739 53.4972L24.4458 55.7975L17.5176 51.7975C15.6084 50.6952 14.9516 48.2566 16.0467 46.3451L12.5826 44.3451C10.383 48.1697 11.6952 53.0547 15.5176 55.2616L22.4458 59.2616L22.8275 59.4819C19.1219 68.0172 17.0676 77.4353 17.0676 87.3334C17.0676 97.2314 19.1219 106.65 22.8275 115.185L22.4458 115.405L15.5176 119.405C11.7017 121.608 10.3874 126.48 12.5715 130.302L12.2405 130.493C4.70022 117.42 0.716957 102.601 0.685791 87.5118C0.714227 102.606 4.69763 117.431 12.2405 130.509L87.0676 87.349L87.054 87.3412L74.9383 94.3294C73.7485 92.2711 73.0676 89.8817 73.0676 87.3334C73.0676 84.7877 73.747 82.4008 74.9344 80.3439L69.7374 77.3434C69.6756 77.4505 69.6147 77.5581 69.5548 77.6664L68.7471 79.0654L48.8285 67.5654L49.8217 65.8451L43.7523 62.3409C39.5008 69.6936 37.0676 78.2293 37.0676 87.3334C37.0676 96.4348 39.4994 104.968 43.7486 112.319L31.6193 119.315C26.1803 109.906 23.0676 98.9832 23.0676 87.3334C23.0676 75.6788 26.1828 64.7519 31.6259 55.3398L26.4289 52.3393ZM49.8195 108.818L69.74 97.3278C69.6772 97.2191 69.6154 97.1098 69.5546 96.9999L68.7471 95.6013L48.8285 107.101L49.8195 108.818ZM46.3083 103.938L46.8285 103.637L66.7471 92.1372L67.541 91.6788C67.231 90.2798 67.0676 88.8257 67.0676 87.3334C67.0676 85.841 67.231 84.3869 67.541 82.9879L66.7471 82.5295L46.8285 71.0295L46.3083 70.7291C44.2189 75.8527 43.0676 81.4586 43.0676 87.3334C43.0676 93.2081 44.2189 98.814 46.3083 103.938ZM24.4458 118.869L25.7734 121.169C25.9858 121.553 26.2017 121.934 26.421 122.314L16.0365 128.304C14.9558 126.395 15.6144 123.968 17.5176 122.869L24.4458 118.869Z" fill="#B085F5"/>
<path fill-rule="evenodd" clip-rule="evenodd" d="M12.2835 44.115C12.2813 44.1189 12.279 44.1228 12.2767 44.1267L87.0676 87.349V0.967041L87.0676 1.33337C82.6493 1.33337 79.0676 4.9151 79.0676 9.33337V17.3334V17.7855C59.338 20.0302 42.0975 30.4768 30.8392 45.6323L30.4458 45.4052L23.5176 41.4052C19.7017 39.202 14.8252 40.4999 12.6075 44.3022L12.2835 44.115ZM26.4504 52.3022C26.6484 51.9604 26.8492 51.6204 27.0527 51.2823L28.4458 48.8693L21.5176 44.8693C19.6144 43.7704 17.1835 44.4135 16.0708 46.3037L26.4504 52.3022ZM83.0676 9.33337C83.0676 7.12424 84.8585 5.33337 87.0676 5.33337V17.3334H83.0676V9.33337ZM31.6462 55.3048C42.7161 36.1909 63.3903 23.3334 87.0676 23.3334V37.3334C68.5698 37.3334 52.418 47.3783 43.7696 62.3111L31.6462 55.3048ZM69.9207 77.0328C69.8624 77.1295 69.805 77.2267 69.7484 77.3245L49.8375 65.8178L50.8285 64.1013L70.7471 75.6013L69.9207 77.0328ZM52.3167 60.3417L52.8285 60.6372L72.7471 72.1372L73.5448 72.5978C75.6777 70.6393 78.2371 69.138 81.0676 68.249V67.3334V44.3334V43.739C69.4113 45.3284 59.2075 51.4828 52.3167 60.3417ZM87.0676 44.3334H85.0676V67.3334H87.0676V44.3334ZM74.9442 80.3271C77.3657 76.146 81.8882 73.3334 87.0676 73.3334V87.3334L74.9442 80.3271Z" fill="#FFBB6D"/>
<path fill-rule="evenodd" clip-rule="evenodd" d="M161.87 44.1463L161.546 44.3334C159.337 40.507 154.444 39.196 150.618 41.4051L143.689 45.4051L143.296 45.6323C132.038 30.4768 114.797 20.0302 95.0676 17.7855V17.3334V9.33336C95.0676 4.92709 91.5054 1.35284 87.1037 1.33344L87.102 5.3335C89.2953 5.35195 91.0676 7.13568 91.0676 9.33336V17.3334L87.097 17.3334L87.0944 23.3334C110.77 23.3431 131.44 36.2085 142.502 55.328L130.376 62.3292C121.734 47.3921 105.585 37.3409 87.0886 37.3334L87.0856 44.3334H89.0676V67.3334H87.076L87.0735 73.3334C92.2525 73.3355 96.7741 76.1498 99.194 80.3322L87.0676 87.3334L87.0677 87.349L161.877 44.1581C161.874 44.1541 161.872 44.1502 161.87 44.1463ZM152.618 44.8692C154.531 43.7647 156.977 44.4202 158.082 46.3334L147.7 52.3275C147.497 51.9775 147.291 51.6293 147.083 51.2831L145.689 48.8692L152.618 44.8692ZM93.0676 43.739V44.3334V67.3334V68.249C95.8982 69.138 98.4575 70.6393 100.59 72.5978L101.388 72.1372L121.307 60.6372L121.819 60.3417C114.928 51.4828 104.724 45.3284 93.0676 43.739ZM124.307 65.8334L123.307 64.1013L103.388 75.6013L104.215 77.0335C104.275 77.1324 104.333 77.2318 104.391 77.3317L124.307 65.8334Z" fill="#B085F5"/>
<path fill-rule="evenodd" clip-rule="evenodd" d="M149.689 55.7975L156.618 51.7975C158.517 50.7009 159.177 48.2819 158.105 46.375L161.57 44.3764C163.745 48.1963 162.43 53.0607 158.618 55.2616L151.689 59.2616L151.308 59.4819C155.013 68.0172 157.068 77.4354 157.068 87.3334C157.068 97.2314 155.013 106.65 151.308 115.185L151.689 115.405L158.618 119.405C162.444 121.614 163.755 126.507 161.546 130.333L161.877 130.524C169.455 117.398 173.446 102.509 173.45 87.3515C173.45 87.2912 173.45 87.2309 173.449 87.1706C173.45 87.2361 173.45 87.3016 173.45 87.3672C173.446 102.524 169.455 117.414 161.877 130.54L87.0676 87.3491L87.0812 87.3412L99.194 94.3345C100.386 92.2751 101.068 89.8839 101.068 87.3334C101.068 84.7898 100.389 82.4047 99.2037 80.3491L104.402 77.3507C104.462 77.4551 104.521 77.56 104.58 77.6655L105.388 79.0654L125.307 67.5654L124.323 65.8608L130.393 62.3591C134.638 69.7076 137.068 78.2368 137.068 87.3334C137.068 96.4423 134.632 104.982 130.376 112.338L142.502 119.339C147.95 109.924 151.068 98.9928 151.068 87.3334C151.068 75.6884 147.958 64.7699 142.523 55.363L147.721 52.3647C147.938 52.7398 148.151 53.1171 148.361 53.4966L149.689 55.7975ZM156.618 122.869C158.531 123.974 159.186 126.42 158.082 128.333L147.699 122.339C147.924 121.952 148.144 121.562 148.361 121.17L149.689 118.869L156.618 122.869ZM106.594 82.9879C106.904 84.3869 107.068 85.8411 107.068 87.3334C107.068 88.8257 106.904 90.2798 106.594 91.6789L107.388 92.1372L127.307 103.637L127.827 103.938C129.916 98.814 131.068 93.2081 131.068 87.3334C131.068 81.4586 129.916 75.8528 127.827 70.7292L127.307 71.0295L107.388 82.5295L106.594 82.9879ZM124.307 108.833L125.307 107.101L105.388 95.6013L104.58 97.0013C104.518 97.1132 104.455 97.2245 104.391 97.335L124.307 108.833Z" fill="#FFBB6D"/>
</svg>
