<svg width="40" height="40" viewBox="0 0 40 40" fill="none" xmlns="http://www.w3.org/2000/svg">
<rect width="40" height="40" rx="10" fill="white"/>
<rect x="2" y="2" width="36" height="36" fill="white"/>
<path fill-rule="evenodd" clip-rule="evenodd" d="M10.9095 10.9095L14.7277 14.7278C17.5395 11.916 22.0983 11.916 24.9101 14.7278C24.9101 14.7278 24.9102 14.7279 24.9102 14.7279L28.7286 10.9095C23.808 5.98894 15.8301 5.98894 10.9095 10.9095Z" fill="#EA4335"/>
<path fill-rule="evenodd" clip-rule="evenodd" d="M10.9095 10.9098L14.7279 14.7281C14.7278 14.7282 14.7278 14.7282 14.7278 14.7282C11.916 17.54 11.916 22.0988 14.7278 24.9106C14.7278 24.9106 14.7278 24.9106 14.7278 24.9106L10.9095 28.7289C5.98894 23.8083 5.98894 15.8304 10.9095 10.9098Z" fill="#FBBC05"/>
<path fill-rule="evenodd" clip-rule="evenodd" d="M28.7286 28.7286L24.9102 24.9102C24.9102 24.9103 24.9101 24.9103 24.9101 24.9103C22.0983 27.7221 17.5395 27.7221 14.7278 24.9104L10.9095 28.7286C15.8301 33.6492 23.808 33.6492 28.7286 28.7286Z" fill="#34A853"/>
<path fill-rule="evenodd" clip-rule="evenodd" d="M27.019 19.8188C27.019 21.6615 26.3161 23.5042 24.9102 24.9101L24.9101 24.9102L28.7283 28.7284C31.1886 26.2681 32.4188 23.0435 32.4188 19.8188H27.019Z" fill="#4285F4"/>
<rect x="19.8191" y="17.1191" width="10.8" height="5.4" fill="#4285F4"/>
<rect x="21.619" y="17.1191" width="10.8" height="3.6" fill="#4285F4"/>
</svg>
