<svg width="260" height="256" viewBox="0 0 260 256" fill="none" xmlns="http://www.w3.org/2000/svg">
<g filter="url(#filter0_d_1372_10643)">
<rect x="40" y="36" width="180" height="180" rx="32" fill="white"/>
<rect x="40.5" y="36.5" width="179" height="179" rx="31.5" stroke="#D9D9D9"/>
<g clip-path="url(#clip0_1372_10643)">
<path d="M174.8 62H85.2C74.5961 62 66 70.5961 66 81.2V170.8C66 181.404 74.5961 190 85.2 190H174.8C185.404 190 194 181.404 194 170.8V81.2C194 70.5961 185.404 62 174.8 62Z" fill="white"/>
<path d="M131 149L96.75 157.25V94.75L131 102.75V149Z" fill="#E05243"/>
<path d="M130 149.25L163.25 157.25V94.75L130 102.75V149.25Z" fill="#8C3123"/>
<path d="M130 78V102.25L144.5 105.75V85.25L130 78ZM163.25 94.75V157.25L169.75 154V97.75L163.25 94.75ZM130 114V138.25L144.5 136.25V115.75L130 114ZM144.5 146.25L130 149.75V174L144.5 166.75V146.25Z" fill="#E05243"/>
<path d="M130 174V149.75L115.5 146.25V166.75L130 174ZM96.75 157.25V94.75L90.25 98V154.25L96.75 157.25ZM130 138V113.75L115.5 115.75V136.25L130 138ZM115.5 105.75L130 102.25V78L115.5 85.25V105.75Z" fill="#8C3123"/>
<path d="M144.5 105.75L130 108.5L115.5 105.75L130 102L144.5 105.75Z" fill="#5E1F18"/>
<path d="M144.5 146.25L130 143.5L115.5 146.25L130 150.25L144.5 146.25Z" fill="#F2B0A9"/>
</g>
</g>
<defs>
<filter id="filter0_d_1372_10643" x="0" y="0" width="260" height="260" filterUnits="userSpaceOnUse" color-interpolation-filters="sRGB">
<feFlood flood-opacity="0" result="BackgroundImageFix"/>
<feColorMatrix in="SourceAlpha" type="matrix" values="0 0 0 0 0 0 0 0 0 0 0 0 0 0 0 0 0 0 127 0" result="hardAlpha"/>
<feOffset dy="4"/>
<feGaussianBlur stdDeviation="20"/>
<feComposite in2="hardAlpha" operator="out"/>
<feColorMatrix type="matrix" values="0 0 0 0 0.0367917 0 0 0 0 0.0348958 0 0 0 0 0.0484375 0 0 0 0.1 0"/>
<feBlend mode="normal" in2="BackgroundImageFix" result="effect1_dropShadow_1372_10643"/>
<feBlend mode="normal" in="SourceGraphic" in2="effect1_dropShadow_1372_10643" result="shape"/>
</filter>
<clipPath id="clip0_1372_10643">
<rect width="128" height="128" fill="white" transform="translate(66 62)"/>
</clipPath>
</defs>
</svg>
