<svg width="260" height="256" viewBox="0 0 260 256" fill="none" xmlns="http://www.w3.org/2000/svg">
<g filter="url(#filter0_d_1372_10561)">
<rect x="39.8956" y="36" width="180" height="180" rx="32" fill="white"/>
<rect x="40.3956" y="36.5" width="179" height="179" rx="31.5" stroke="#D9D9D9"/>
</g>
<path d="M113.333 176C122.533 176 130 168.533 130 159.333V142.667H113.333C104.133 142.667 96.6667 150.133 96.6667 159.333C96.6667 168.533 104.133 176 113.333 176Z" fill="#0ACF83"/>
<path d="M96.6667 126C96.6667 116.8 104.133 109.333 113.333 109.333H130V142.667H113.333C104.133 142.667 96.6667 135.2 96.6667 126Z" fill="#A259FF"/>
<path d="M96.6667 92.6667C96.6667 83.4667 104.133 76 113.333 76H130V109.333H113.333C104.133 109.333 96.6667 101.867 96.6667 92.6667Z" fill="#F24E1E"/>
<path d="M130 76H146.667C155.867 76 163.333 83.4667 163.333 92.6667C163.333 101.867 155.867 109.333 146.667 109.333H130V76Z" fill="#FF7262"/>
<path d="M163.333 126C163.333 135.2 155.867 142.667 146.667 142.667C137.467 142.667 130 135.2 130 126C130 116.8 137.467 109.333 146.667 109.333C155.867 109.333 163.333 116.8 163.333 126Z" fill="#1ABCFE"/>
<defs>
<filter id="filter0_d_1372_10561" x="-0.10437" y="0" width="260" height="260" filterUnits="userSpaceOnUse" color-interpolation-filters="sRGB">
<feFlood flood-opacity="0" result="BackgroundImageFix"/>
<feColorMatrix in="SourceAlpha" type="matrix" values="0 0 0 0 0 0 0 0 0 0 0 0 0 0 0 0 0 0 127 0" result="hardAlpha"/>
<feOffset dy="4"/>
<feGaussianBlur stdDeviation="20"/>
<feComposite in2="hardAlpha" operator="out"/>
<feColorMatrix type="matrix" values="0 0 0 0 0.0367917 0 0 0 0 0.0348958 0 0 0 0 0.0484375 0 0 0 0.1 0"/>
<feBlend mode="normal" in2="BackgroundImageFix" result="effect1_dropShadow_1372_10561"/>
<feBlend mode="normal" in="SourceGraphic" in2="effect1_dropShadow_1372_10561" result="shape"/>
</filter>
</defs>
</svg>
