<svg width="261" height="261" viewBox="0 0 261 261" fill="none" xmlns="http://www.w3.org/2000/svg">
<g filter="url(#filter0_d_1126_22)">
<rect x="40.724" y="36.4058" width="180" height="180" rx="32" fill="white"/>
<rect x="41.224" y="36.9058" width="179" height="179" rx="31.5" stroke="#D9D9D9"/>
</g>
<path d="M117.877 153.336C117.877 153.336 114.055 155.558 120.596 156.31C128.521 157.214 132.57 157.084 141.303 155.431C141.303 155.431 143.599 156.871 146.805 158.118C127.229 166.508 102.501 157.632 117.877 153.336V153.336ZM115.485 142.387C115.485 142.387 111.199 145.56 117.744 146.237C126.209 147.11 132.894 147.182 144.462 144.954C144.462 144.954 146.062 146.576 148.577 147.463C124.909 154.384 98.5461 148.009 115.485 142.387" fill="#5382A1"/>
<path d="M135.651 123.815C140.474 129.369 134.383 134.366 134.383 134.366C134.383 134.366 146.631 128.043 141.006 120.126C135.753 112.743 131.724 109.074 153.534 96.425C153.534 96.425 119.3 104.975 135.651 123.815" fill="#E76F00"/>
<path d="M161.541 161.434C161.541 161.434 164.369 163.764 158.427 165.566C147.128 168.99 111.397 170.023 101.471 165.703C97.9033 164.151 104.594 161.997 106.699 161.545C108.894 161.069 110.149 161.157 110.149 161.157C106.181 158.362 84.5007 166.646 99.1365 169.018C139.05 175.491 171.894 166.104 161.541 161.434ZM119.714 131.044C119.714 131.044 101.54 135.361 113.278 136.928C118.235 137.591 128.115 137.442 137.318 136.67C144.84 136.036 152.392 134.687 152.392 134.687C152.392 134.687 149.74 135.823 147.822 137.133C129.365 141.987 93.7114 139.729 103.976 134.764C112.656 130.568 119.714 131.044 119.714 131.044H119.714ZM152.317 149.268C171.079 139.518 162.405 130.15 156.35 131.412C154.866 131.721 154.204 131.988 154.204 131.988C154.204 131.988 154.755 131.125 155.807 130.752C167.785 126.54 176.997 143.172 151.94 149.759C151.94 149.759 152.231 149.5 152.317 149.268" fill="#5382A1"/>
<path d="M141.006 76.0003C141.006 76.0003 151.397 86.3946 131.151 102.377C114.917 115.198 127.449 122.509 131.145 130.861C121.668 122.311 114.713 114.784 119.379 107.779C126.227 97.4957 145.198 92.5102 141.006 76" fill="#E76F00"/>
<path d="M121.558 175.686C139.567 176.839 167.221 175.046 167.876 166.525C167.876 166.525 166.617 169.755 152.993 172.321C137.622 175.213 118.664 174.875 107.42 173.022C107.42 173.022 109.722 174.927 121.558 175.686" fill="#5382A1"/>
<defs>
<filter id="filter0_d_1126_22" x="0.723999" y="0.405762" width="260" height="260" filterUnits="userSpaceOnUse" color-interpolation-filters="sRGB">
<feFlood flood-opacity="0" result="BackgroundImageFix"/>
<feColorMatrix in="SourceAlpha" type="matrix" values="0 0 0 0 0 0 0 0 0 0 0 0 0 0 0 0 0 0 127 0" result="hardAlpha"/>
<feOffset dy="4"/>
<feGaussianBlur stdDeviation="20"/>
<feComposite in2="hardAlpha" operator="out"/>
<feColorMatrix type="matrix" values="0 0 0 0 0.0367917 0 0 0 0 0.0348958 0 0 0 0 0.0484375 0 0 0 0.1 0"/>
<feBlend mode="normal" in2="BackgroundImageFix" result="effect1_dropShadow_1126_22"/>
<feBlend mode="normal" in="SourceGraphic" in2="effect1_dropShadow_1126_22" result="shape"/>
</filter>
</defs>
</svg>
