<svg width="261" height="257" viewBox="0 0 261 257" fill="none" xmlns="http://www.w3.org/2000/svg">
<g filter="url(#filter0_d_1135_1065)">
<rect x="40.4478" y="36.7029" width="180" height="180" rx="32" fill="white"/>
<rect x="40.9478" y="37.2029" width="179" height="179" rx="31.5" stroke="#D9D9D9"/>
</g>
<path d="M103.596 112.64H122.457V114.131H105.325V125.36H121.435V126.852H105.325V139.179H122.653V140.671H103.596V112.64ZM124.146 112.64H126.15L135.031 124.967L144.107 112.64L156.453 96.9805L136.17 126.263L146.622 140.671H144.54L135.031 127.558L125.482 140.671H123.439L133.97 126.263L124.146 112.64ZM147.369 114.131V112.64H168.862V114.131H158.96V140.671H157.231V114.131H147.369Z" fill="black"/>
<path d="M80 112.639H82.1611L111.962 157.02L99.6468 140.671L81.8075 114.76L81.7289 140.671H80V112.639Z" fill="black"/>
<path d="M168.688 138.729C169.046 138.729 169.306 138.457 169.306 138.105C169.306 137.753 169.046 137.48 168.688 137.48C168.335 137.48 168.07 137.753 168.07 138.105C168.07 138.457 168.335 138.729 168.688 138.729ZM170.387 137.087C170.387 138.126 171.14 138.805 172.237 138.805C173.406 138.805 174.113 138.105 174.113 136.89V132.611H173.171V136.885C173.171 137.56 172.83 137.92 172.229 137.92C171.691 137.92 171.325 137.585 171.312 137.087H170.387ZM175.345 137.032C175.412 138.113 176.316 138.805 177.662 138.805C179.1 138.805 180 138.08 180 136.923C180 136.014 179.487 135.511 178.242 135.222L177.574 135.058C176.783 134.874 176.463 134.627 176.463 134.195C176.463 133.65 176.96 133.294 177.704 133.294C178.41 133.294 178.898 133.642 178.987 134.199H179.903C179.849 133.181 178.949 132.465 177.717 132.465C176.392 132.465 175.509 133.181 175.509 134.258C175.509 135.146 176.009 135.674 177.107 135.93L177.889 136.119C178.692 136.307 179.045 136.584 179.045 137.045C179.045 137.581 178.49 137.971 177.733 137.971C176.922 137.971 176.358 137.606 176.278 137.032H175.345Z" fill="black"/>
<defs>
<filter id="filter0_d_1135_1065" x="0.447754" y="0.702881" width="260" height="260" filterUnits="userSpaceOnUse" color-interpolation-filters="sRGB">
<feFlood flood-opacity="0" result="BackgroundImageFix"/>
<feColorMatrix in="SourceAlpha" type="matrix" values="0 0 0 0 0 0 0 0 0 0 0 0 0 0 0 0 0 0 127 0" result="hardAlpha"/>
<feOffset dy="4"/>
<feGaussianBlur stdDeviation="20"/>
<feComposite in2="hardAlpha" operator="out"/>
<feColorMatrix type="matrix" values="0 0 0 0 0.0367917 0 0 0 0 0.0348958 0 0 0 0 0.0484375 0 0 0 0.1 0"/>
<feBlend mode="normal" in2="BackgroundImageFix" result="effect1_dropShadow_1135_1065"/>
<feBlend mode="normal" in="SourceGraphic" in2="effect1_dropShadow_1135_1065" result="shape"/>
</filter>
</defs>
</svg>
