<svg width="260" height="256" viewBox="0 0 260 256" fill="none" xmlns="http://www.w3.org/2000/svg">
<g filter="url(#filter0_d_1301_926)">
<rect x="40" y="36" width="180" height="180" rx="32" fill="white"/>
<rect x="40.5" y="36.5" width="179" height="179" rx="31.5" stroke="#D9D9D9"/>
</g>
<path d="M95.0888 102.243C93.1355 91.6679 92.7163 83.5573 93.9789 77.6678C94.7298 74.1651 96.1027 71.3076 98.1903 69.246C100.394 67.0694 103.181 66.0014 106.312 66.0014C111.477 66.0014 116.906 68.6311 122.709 73.6267C125.076 75.6643 127.532 78.1203 130.083 80.9961C130.286 80.7043 130.516 80.429 130.771 80.1746C137.984 72.9988 144.056 68.5404 149.25 66.8214C152.338 65.7993 155.237 65.7019 157.877 66.6939C160.664 67.741 162.885 69.9056 164.452 72.9375C167.037 77.9412 167.719 84.5161 166.755 92.6344C166.362 95.9435 165.69 99.548 164.741 103.454C165.099 103.502 165.458 103.591 165.814 103.722C174.965 107.108 181.444 110.749 185.367 114.909C187.701 117.385 189.226 120.141 189.777 123.192C190.358 126.412 189.791 129.642 188.226 132.672C185.645 137.668 180.9 141.609 174.14 144.73C171.425 145.983 168.354 147.118 164.922 148.139C165.079 148.534 165.2 148.953 165.281 149.393C167.235 159.967 167.654 168.078 166.391 173.968C165.64 177.47 164.267 180.328 162.18 182.389C159.976 184.566 157.19 185.634 154.059 185.634C148.894 185.634 143.464 183.004 137.661 178.009C135.269 175.949 132.786 173.463 130.206 170.547C129.94 171.011 129.614 171.442 129.229 171.825C122.016 179.001 115.944 183.46 110.75 185.179C107.662 186.201 104.763 186.298 102.123 185.306C99.3358 184.259 97.1152 182.094 95.5484 179.063C92.9628 174.059 92.2809 167.484 93.2449 159.366C93.652 155.937 94.3585 152.191 95.3627 148.122C94.9702 148.077 94.576 147.985 94.1863 147.84C85.0354 144.455 78.5556 140.814 74.6326 136.653C72.2985 134.177 70.7743 131.421 70.2233 128.371C69.6418 125.15 70.2089 121.921 71.7738 118.891C74.3546 113.894 79.1 109.954 85.8605 106.832C88.6559 105.542 91.8297 104.377 95.3856 103.332C95.259 102.986 95.1589 102.622 95.0888 102.243Z" fill="#002B3B"/>
<path d="M144.053 140.57L141.752 145.032C141.058 146.376 139.775 147.205 138.385 147.205H120.752C119.363 147.205 118.079 146.376 117.386 145.032L115.084 140.57H144.053ZM150.497 128.077L146.439 135.945H112.698L108.64 128.077H150.497ZM146.588 115.861L150.504 123.453H108.633L112.549 115.861H146.588ZM138.385 104.313C139.775 104.313 141.058 105.142 141.752 106.486L144.203 111.237H114.935L117.386 106.486C118.079 105.142 119.363 104.313 120.752 104.313H138.385Z" fill="#00435B"/>
<path d="M158.897 150.432C159.807 150.252 160.679 150.903 160.882 151.903L160.893 151.962L160.99 152.524C164.135 170.986 161.92 180.217 154.343 180.217C146.931 180.217 137.494 172.34 126.034 156.587C125.781 156.238 125.645 155.803 125.648 155.354C125.656 154.31 126.407 153.467 127.336 153.444L127.39 153.444L127.993 153.448C132.816 153.478 137.504 153.29 142.058 152.885C147.433 152.408 153.046 151.59 158.897 150.432ZM106.865 136.477L106.894 136.532L107.197 137.122C109.624 141.832 112.152 146.302 114.782 150.533C117.879 155.516 121.362 160.56 125.23 165.665C125.829 166.455 125.761 167.628 125.085 168.325L125.041 168.369L124.652 168.743C111.853 180.987 103.533 183.432 99.6944 176.076C95.9367 168.876 97.299 155.784 103.781 136.801C103.924 136.383 104.192 136.034 104.539 135.813C105.351 135.296 106.38 135.595 106.865 136.477ZM165.392 109.235L165.445 109.254L165.927 109.44C181.726 115.576 187.728 122.319 183.934 129.669C180.223 136.858 169.436 142.092 151.571 145.372C151.173 145.445 150.764 145.36 150.416 145.131C149.594 144.592 149.319 143.41 149.802 142.493C152.361 137.633 154.666 132.798 156.716 127.987C159.041 122.531 161.223 116.675 163.262 110.418C163.571 109.47 164.479 108.955 165.34 109.218L165.392 109.235ZM109.584 106.146C110.406 106.685 110.681 107.867 110.198 108.784C107.639 113.644 105.335 118.479 103.284 123.29C100.959 128.746 98.777 134.602 96.738 140.859C96.4225 141.826 95.4834 142.343 94.6079 142.042L94.5554 142.023L94.0737 141.837C78.2745 135.701 72.2721 128.958 76.0662 121.608C79.7769 114.419 90.5646 109.185 108.429 105.905C108.828 105.832 109.236 105.917 109.584 106.146ZM160.306 75.9238C164.063 83.1239 162.701 96.2157 156.219 115.199C156.076 115.616 155.809 115.965 155.461 116.187C154.65 116.704 153.621 116.405 153.135 115.523L153.106 115.468L152.803 114.878C150.376 110.168 147.848 105.697 145.218 101.467C142.121 96.484 138.638 91.44 134.77 86.3344C134.171 85.5446 134.24 84.3722 134.915 83.675L134.959 83.6311L135.348 83.2571C148.148 71.0125 156.467 68.5681 160.306 75.9238ZM106.304 71.5421C113.717 71.5421 123.153 79.4188 134.613 95.1723C134.866 95.5204 135.003 95.9561 135 96.4045C134.991 97.449 134.241 98.2922 133.312 98.3149L133.258 98.3152L132.654 98.3105C127.832 98.2813 123.144 98.469 118.59 98.8736C113.215 99.3513 107.601 100.169 101.75 101.327C100.841 101.507 99.9687 100.855 99.7656 99.8562L99.7544 99.7971L99.6575 99.2348C96.5122 80.773 98.7278 71.5421 106.304 71.5421Z" fill="#FF4154"/>
<path d="M122.169 104.554H136.971C139.135 104.554 141.134 105.847 142.212 107.943L149.644 122.401C150.713 124.48 150.713 127.037 149.644 129.117L142.212 143.575C141.134 145.671 139.135 146.964 136.971 146.964H122.169C120.005 146.964 118.005 145.671 116.928 143.575L109.496 129.117C108.427 127.037 108.427 124.48 109.496 122.401L116.928 107.943C118.005 105.847 120.005 104.554 122.169 104.554ZM134.715 108.918C136.88 108.918 138.881 110.212 139.958 112.31L145.14 122.404C146.207 124.482 146.207 127.036 145.14 129.114L139.958 139.208C138.881 141.306 136.88 142.6 134.715 142.6H124.425C122.259 142.6 120.259 141.306 119.182 139.208L114 129.114C112.933 127.036 112.933 124.482 114 122.404L119.182 112.31C120.259 110.212 122.259 108.918 124.425 108.918H134.715ZM132.283 113.691H126.857C124.693 113.691 122.695 114.982 121.617 117.076L118.878 122.398C117.807 124.479 117.807 127.039 118.878 129.12L121.617 134.442C122.695 136.536 124.693 137.827 126.857 137.827H132.283C134.447 137.827 136.445 136.536 137.523 134.442L140.262 129.12C141.333 127.039 141.333 124.479 140.262 122.398L137.523 117.076C136.445 114.982 134.447 113.691 132.283 113.691ZM129.942 118.259C132.104 118.259 134.101 119.548 135.18 121.64L135.568 122.393C136.642 124.477 136.642 127.041 135.568 129.125L135.18 129.878C134.101 131.97 132.104 133.259 129.942 133.259H129.198C127.036 133.259 125.039 131.97 123.96 129.878L123.572 129.125C122.498 127.041 122.498 124.477 123.572 122.393L123.96 121.64C125.039 119.548 127.036 118.259 129.198 118.259H129.942ZM129.571 122.759C128.609 122.759 127.721 123.331 127.241 124.259C126.761 125.187 126.761 126.331 127.241 127.259C127.721 128.187 128.609 128.759 129.569 128.759C130.531 128.759 131.419 128.187 131.899 127.259C132.379 126.331 132.379 125.187 131.899 124.259C131.419 123.331 130.531 122.759 129.571 122.759ZM107.77 125.759H112.608H107.77Z" fill="#FFD94C"/>
<defs>
<filter id="filter0_d_1301_926" x="0" y="0" width="260" height="260" filterUnits="userSpaceOnUse" color-interpolation-filters="sRGB">
<feFlood flood-opacity="0" result="BackgroundImageFix"/>
<feColorMatrix in="SourceAlpha" type="matrix" values="0 0 0 0 0 0 0 0 0 0 0 0 0 0 0 0 0 0 127 0" result="hardAlpha"/>
<feOffset dy="4"/>
<feGaussianBlur stdDeviation="20"/>
<feComposite in2="hardAlpha" operator="out"/>
<feColorMatrix type="matrix" values="0 0 0 0 0.0367917 0 0 0 0 0.0348958 0 0 0 0 0.0484375 0 0 0 0.1 0"/>
<feBlend mode="normal" in2="BackgroundImageFix" result="effect1_dropShadow_1301_926"/>
<feBlend mode="normal" in="SourceGraphic" in2="effect1_dropShadow_1301_926" result="shape"/>
</filter>
</defs>
</svg>
