<svg width="160" height="160" viewBox="0 0 160 160" fill="none" xmlns="http://www.w3.org/2000/svg">
<path d="M83.6272 20C83.8693 20.123 84.1347 20.0844 84.3905 20.0967C92.4927 20.4781 100.232 22.2834 107.551 25.7427C112.853 28.2488 117.643 31.4866 121.963 35.3971C122.05 35.4762 122.151 35.5401 122.212 35.5858C122.172 35.8512 122.003 35.9444 121.88 36.0645C116.324 41.5066 110.766 46.9458 105.208 52.3856C105.123 52.4683 105.037 52.5497 104.952 52.6329C104.846 52.7366 104.745 52.7202 104.641 52.6259C104.525 52.5187 104.406 52.4149 104.289 52.3095C99.5098 48.0369 93.9258 45.3568 87.5522 44.2881C75.0889 42.198 62.6627 46.5732 54.3286 55.9469C51.1238 59.5516 48.7009 63.601 47.094 68.1162C47.0419 68.2621 46.9736 68.4027 46.9131 68.5457C46.8628 68.5146 46.8088 68.4876 46.7621 68.4519C43.5237 65.9922 40.2872 63.5307 37.0488 61.0709C33.575 58.4325 30.1 55.7958 26.625 53.1579C26.6466 52.9774 26.7574 52.8339 26.8383 52.6786C29.4997 47.5898 32.8087 42.9392 36.8565 38.8213C48.2132 27.2685 62.0713 20.9996 78.4422 20.0943C78.6166 20.085 78.8047 20.1271 78.9581 20C80.5147 20 82.0712 20 83.6272 20Z" fill="#EA4435"/>
<path d="M46.8999 91.4961C47.4044 92.7242 47.8393 93.9805 48.4241 95.1769C53.1807 104.907 60.6951 111.578 71.2603 114.83C74.9822 115.976 78.8143 116.381 82.7147 116.253C87.0543 116.112 91.2686 115.376 95.3368 113.873C97.5452 113.058 99.6416 112.024 101.633 110.783C101.8 110.678 101.976 110.586 102.148 110.488C102.251 110.579 102.349 110.675 102.458 110.759C106.811 114.07 111.165 117.378 115.518 120.691C117.607 122.281 119.691 123.878 121.777 125.471C120.503 126.712 119.104 127.811 117.669 128.863C111.004 133.748 103.556 136.92 95.4285 138.614C92.3237 139.261 89.1866 139.667 86.022 139.882C85.1017 139.867 84.1826 139.869 83.2689 140C82.0317 140 80.7945 140 79.5572 140C78.7226 139.874 77.882 139.869 77.0408 139.886C75.3321 139.758 73.6299 139.574 71.9344 139.322C67.7841 138.705 63.7369 137.692 59.8215 136.217C46.4541 131.183 36.089 122.631 28.6806 110.641C27.9287 109.424 27.1972 108.193 26.6172 106.885C27.8502 105.958 29.0874 105.036 30.3163 104.102C35.8457 99.9019 41.3728 95.6984 46.8999 91.4961Z" fill="#35A851"/>
<path d="M121.765 125.47C119.679 123.876 117.595 122.279 115.506 120.689C111.153 117.377 106.799 114.068 102.446 110.757C102.337 110.674 102.239 110.577 102.136 110.486C103.032 109.804 103.964 109.168 104.828 108.442C109.681 104.363 112.824 99.2792 114.226 93.1673C114.253 93.0537 114.267 92.9365 114.281 92.8205C114.302 92.647 114.21 92.5685 114.041 92.5662C113.861 92.5638 113.682 92.5626 113.502 92.5626C103.046 92.5626 92.5903 92.5632 82.1347 92.5609C81.2072 92.5609 81.3168 92.6751 81.3162 91.7423C81.3132 84.7504 81.3138 77.7585 81.3156 70.766C81.3156 69.9515 81.2371 70.0336 82.0424 70.0336C100.799 70.0324 119.556 70.0324 138.312 70.0324C139.023 70.0324 139.036 70.0312 139.141 70.746C139.42 72.638 139.662 74.5335 139.795 76.4425C139.924 78.2741 140.017 80.1057 139.995 81.942C139.952 85.5567 139.667 89.1502 139.083 92.7232C138.298 97.522 137 102.176 135.094 106.664C132.645 112.432 129.325 117.663 125.028 122.292C124.115 123.275 123.157 124.215 122.181 125.138C122.052 125.261 121.938 125.401 121.765 125.47Z" fill="#557DBF"/>
<path d="M26.614 106.884C25.8345 105.542 25.2204 104.125 24.6165 102.704C22.7256 98.2553 21.4236 93.6428 20.6765 88.8815C20.06 84.9528 19.8743 80.9978 20.081 77.034C20.5118 68.7629 22.6375 60.9185 26.4067 53.5018C26.4678 53.3816 26.5499 53.2721 26.6218 53.1572C30.0962 55.7951 33.5718 58.4318 37.0456 61.0702C40.284 63.53 43.5211 65.9909 46.7589 68.4512C46.8056 68.487 46.8595 68.5139 46.9099 68.545C46.5396 69.8206 46.1388 71.0868 45.8476 72.384C45.0627 75.8791 44.7967 79.4105 45.0999 82.9765C45.3335 85.728 45.8841 88.421 46.7715 91.0454C46.8212 91.1924 46.8542 91.3454 46.8949 91.4954C41.3672 95.6977 35.8408 99.9011 30.3119 104.101C29.0848 105.034 27.8476 105.957 26.614 106.884Z" fill="#F9BC16"/>
<rect width="160" height="160" fill="white" fill-opacity="0.2"/>
</svg>
