<svg width="10" height="20" viewBox="0 0 10 20" fill="none" xmlns="http://www.w3.org/2000/svg">
<path d="M5 7.49984C6.1 7.49984 7 6.74984 7 5.83317C7 4.9165 6.1 4.1665 5 4.1665C3.9 4.1665 3 4.9165 3 5.83317C3 6.74984 3.9 7.49984 5 7.49984ZM5 9.1665C3.9 9.1665 3 9.9165 3 10.8332C3 11.7498 3.9 12.4998 5 12.4998C6.1 12.4998 7 11.7498 7 10.8332C7 9.9165 6.1 9.1665 5 9.1665ZM5 14.1665C3.9 14.1665 3 14.9165 3 15.8332C3 16.7498 3.9 17.4998 5 17.4998C6.1 17.4998 7 16.7498 7 15.8332C7 14.9165 6.1 14.1665 5 14.1665Z" fill="black"/>
</svg>
