<svg width="24" height="24" viewBox="0 0 24 24" fill="none" xmlns="http://www.w3.org/2000/svg">
<path d="M6.00276 4.88281C5.74676 4.88281 5.47977 4.96882 5.28377 5.16382L4.00276 6.4458L3.72176 6.16382C3.33076 5.77382 2.67477 5.77382 2.28377 6.16382C1.89377 6.55482 1.89377 7.2108 2.28377 7.6018L3.28377 8.6018C3.67477 8.9918 4.33076 8.9918 4.72176 8.6018L6.72176 6.6018C7.11176 6.2108 7.11176 5.55482 6.72176 5.16382C6.52576 4.96882 6.25876 4.88281 6.00276 4.88281ZM10.0028 5.88281C9.45076 5.88281 9.00276 6.33081 9.00276 6.88281C9.00276 7.43481 9.45076 7.88281 10.0028 7.88281H21.0027C21.5547 7.88281 22.0027 7.43481 22.0027 6.88281C22.0027 6.33081 21.5547 5.88281 21.0027 5.88281H10.0028ZM6.00276 9.88281C5.74676 9.88281 5.47977 9.96881 5.28377 10.1638L4.00276 11.4458L3.72176 11.1638C3.33076 10.7738 2.67477 10.7738 2.28377 11.1638C1.89377 11.5548 1.89377 12.2108 2.28377 12.6018L3.28377 13.6018C3.67477 13.9918 4.33076 13.9918 4.72176 13.6018L6.72176 11.6018C7.11176 11.2108 7.11176 10.5548 6.72176 10.1638C6.52576 9.96881 6.25876 9.88281 6.00276 9.88281ZM10.0028 10.8828C9.45076 10.8828 9.00276 11.3308 9.00276 11.8828C9.00276 12.4348 9.45076 12.8828 10.0028 12.8828H21.0027C21.5547 12.8828 22.0027 12.4348 22.0027 11.8828C22.0027 11.3308 21.5547 10.8828 21.0027 10.8828H10.0028ZM6.00276 14.8828C5.74676 14.8828 5.47977 14.9688 5.28377 15.1638L4.00276 16.4458L3.72176 16.1638C3.33076 15.7738 2.67477 15.7738 2.28377 16.1638C1.89377 16.5548 1.89377 17.2108 2.28377 17.6018L3.28377 18.6018C3.67477 18.9918 4.33076 18.9918 4.72176 18.6018L6.72176 16.6018C7.11176 16.2108 7.11176 15.5548 6.72176 15.1638C6.52576 14.9688 6.25876 14.8828 6.00276 14.8828ZM10.0028 15.8828C9.45076 15.8828 9.00276 16.3308 9.00276 16.8828C9.00276 17.4348 9.45076 17.8828 10.0028 17.8828H21.0027C21.5547 17.8828 22.0027 17.4348 22.0027 16.8828C22.0027 16.3308 21.5547 15.8828 21.0027 15.8828H10.0028Z" fill="#2A343D"/>
</svg>
